<?xml version="1.0" standalone="no"?>
<!DOCTYPE svg PUBLIC "-//W3C//DTD SVG 1.1//EN" "http://www.w3.org/Graphics/SVG/1.1/DTD/svg11.dtd" >
<svg xmlns="http://www.w3.org/2000/svg" xmlns:xlink="http://www.w3.org/1999/xlink" version="1.1">
<metadata>
Created by FontForge 20170731 at Tue Apr 25 13:54:44 2017
 By Aleksey,,,
Copyright (c) 2014 by Daniel Hernandez &#38; Miguel Hernandez. All rights reserved.
</metadata>
<defs>
<font id="Texta-Bold" horiz-adv-x="0" >
  <font-face 
    font-family="Texta Bold"
    font-weight="700"
    font-stretch="normal"
    units-per-em="1000"
    panose-1="0 0 8 0 0 0 0 0 0 0"
    ascent="800"
    descent="-200"
    x-height="420"
    cap-height="600"
    bbox="-420 -192 966 813"
    underline-thickness="50"
    underline-position="-200"
    unicode-range="U+000D-25CA"
  />
<missing-glyph horiz-adv-x="564" 
 />
    <glyph glyph-name=".notdef" horiz-adv-x="564" 
 />
    <glyph glyph-name=".null" 
 />
    <glyph glyph-name="nonmarkingreturn" horiz-adv-x="333" 
 />
    <glyph glyph-name="NUL" 
 />
    <glyph glyph-name="NUL" 
 />
    <glyph glyph-name="CR" unicode="&#xd;" horiz-adv-x="105" 
 />
    <glyph glyph-name="space" unicode=" " horiz-adv-x="215" 
 />
    <glyph glyph-name="exclam" unicode="!" horiz-adv-x="220" 
d="M78 183l-25 417h113l-24 -417h-64zM50 54q0 26 17.5 43.5t42.5 17.5q26 0 44 -18t18 -43q0 -26 -18 -44t-44 -18q-25 0 -42.5 18t-17.5 44z" />
    <glyph glyph-name="quotedbl" unicode="&#x22;" horiz-adv-x="328" 
d="M48 475l16 209h87l-46 -209h-57zM196 475l16 209h87l-46 -209h-57z" />
    <glyph glyph-name="numbersign" unicode="#" horiz-adv-x="633" 
d="M602 428l-13 -58h-118l-35 -158h116l-12 -58h-117l-33 -154h-61l33 154h-152l-33 -154h-62l33 154h-117l13 58h117l35 158h-115l12 58h115l34 155h62l-34 -155h151l34 155h62l-34 -155h119zM374 212l35 158h-152l-34 -158h151z" />
    <glyph glyph-name="dollar" unicode="$" horiz-adv-x="517" 
d="M88 134q6 -5 18 -13.5t49.5 -24t76.5 -19.5v189q-100 32 -145.5 70.5t-45.5 106.5q0 72 49.5 117t141.5 52v104h59v-104q56 -4 100 -19t60 -28l16 -13l-52 -78q-45 39 -124 48v-172q103 -30 148 -73t45 -111q0 -73 -49.5 -122.5t-143.5 -56.5v-94h-59v95q-59 4 -108 22
t-68 34l-20 16zM146 447q0 -26 19 -43.5t67 -34.5v153q-40 -5 -63 -24.5t-23 -50.5zM378 160q0 30 -19 49.5t-68 37.5v-170q87 13 87 83z" />
    <glyph glyph-name="percent" unicode="%" horiz-adv-x="661" 
d="M171 613q61 0 97 -43.5t36 -106.5q0 -61 -36 -105t-97 -44t-97 43.5t-36 105.5q0 63 36 106.5t97 43.5zM134 0h-89l476 600h90zM171 549q-29 0 -44.5 -23t-15.5 -63q0 -39 15.5 -62t44.5 -23t44 23t15 62q0 86 -59 86zM491 291q62 0 98 -43t36 -106q0 -62 -36.5 -106
t-97.5 -44t-97 44t-36 106q0 63 36 106t97 43zM491 228q-28 0 -44 -23t-16 -63q0 -39 16 -62t44 -23q29 0 44.5 23t15.5 62q0 40 -15.5 63t-44.5 23z" />
    <glyph glyph-name="ampersand" unicode="&#x26;" horiz-adv-x="611" 
d="M561 275q-17 -90 -64 -160l117 -115h-135l-47 48q-71 -58 -165 -58q-107 0 -164.5 47t-57.5 122q0 58 32 95.5t88 67.5l-12 14q-56 57 -56 127q0 64 46.5 107t123.5 43q78 0 124.5 -40.5t46.5 -103.5q0 -61 -34 -98.5t-94 -69.5l122 -122q27 50 38 118zM192 459
q0 -39 42 -82l15 -16q46 22 70.5 44t24.5 54q0 34 -20.5 54.5t-55.5 20.5q-34 0 -55 -20.5t-21 -54.5zM266 72q62 0 106 38l-145 149q-38 -23 -57.5 -45t-19.5 -53q0 -40 33 -64.5t83 -24.5z" />
    <glyph glyph-name="quotesingle" unicode="'" horiz-adv-x="180" 
d="M48 475l16 209h87l-46 -209h-57z" />
    <glyph glyph-name="parenleft" unicode="(" horiz-adv-x="274" 
d="M135 287q0 -222 122 -361l-60 -63q-161 171 -161 424t161 424l60 -62q-122 -142 -122 -362z" />
    <glyph glyph-name="parenright" unicode=")" horiz-adv-x="274" 
d="M139 287q0 218 -123 362l61 62q161 -174 161 -424t-161 -424l-61 63q123 141 123 361z" />
    <glyph glyph-name="asterisk" unicode="*" horiz-adv-x="387" 
d="M40 558l24 70l112 -62l-18 128h71l-22 -129l115 63l24 -70l-127 -21l91 -93l-60 -42l-58 115l-58 -115l-58 42l90 93z" />
    <glyph glyph-name="plus" unicode="+" horiz-adv-x="508" 
d="M471 333v-78h-177v-174h-79v174h-178v78h178v182h79v-182h177z" />
    <glyph glyph-name="comma" unicode="," horiz-adv-x="212" 
d="M105 107q24 0 41 -17.5t17 -41.5v-7q0 -63 -34 -107.5t-95 -56.5l-15 52q67 16 73 63q-20 3 -33 19t-13 37q0 24 17 41.5t42 17.5z" />
    <glyph glyph-name="hyphen" unicode="-" horiz-adv-x="389" 
d="M335 268v-78h-280v78h280z" />
    <glyph glyph-name="period" unicode="." horiz-adv-x="209" 
d="M105 -10q-25 0 -42 16.5t-17 41.5q0 24 17 41.5t42 17.5q24 0 41 -17.5t17 -41.5q0 -25 -17 -41.5t-41 -16.5z" />
    <glyph glyph-name="slash" unicode="/" horiz-adv-x="588" 
d="M470 783h97l-448 -894l-98 -1z" />
    <glyph glyph-name="zero" unicode="0" horiz-adv-x="609" 
d="M305 -9q-122 0 -192 89t-70 219q0 129 70 217.5t192 88.5t191.5 -88.5t69.5 -217.5q0 -130 -69.5 -219t-191.5 -89zM305 83q77 0 120 61.5t43 154.5q0 92 -43 153t-120 61t-120 -61t-43 -153q0 -93 43 -154.5t120 -61.5z" />
    <glyph glyph-name="one" unicode="1" horiz-adv-x="311" 
d="M243 600v-600h-96v514h-132v86h228z" />
    <glyph glyph-name="two" unicode="2" horiz-adv-x="504" 
d="M287 303q32 31 43.5 54.5t11.5 52.5q0 44 -31 73.5t-83 29.5q-14 0 -27.5 -2.5t-24 -6t-22 -9.5t-19.5 -10.5t-17 -11.5l-13.5 -10.5t-11 -10t-7.5 -6.5l-51 76q3 3 8.5 9t25 20t41.5 25t56 20t70 9q101 0 157.5 -52.5t56.5 -133.5q0 -90 -66 -153l-187 -180h264v-86
h-416v67z" />
    <glyph glyph-name="three" unicode="3" horiz-adv-x="500" 
d="M158 351l155 163h-263v86h391v-74l-162 -169h4q85 -7 129 -53.5t44 -123.5q0 -82 -58.5 -135.5t-165.5 -53.5q-38 0 -73 8.5t-57 21t-38.5 24.5t-23.5 21l-7 8l54 70q2 -3 6 -7t18 -15t29.5 -19.5t40 -15.5t49.5 -7q58 0 91.5 29t33.5 73q0 47 -32.5 73.5t-95.5 26.5h-69
v69z" />
    <glyph glyph-name="four" unicode="4" horiz-adv-x="561" 
d="M350 600h82v-379h100v-85h-100v-136h-96v136h-313v71zM336 221v234l-175 -213l-17 -17v-4h192z" />
    <glyph glyph-name="five" unicode="5" horiz-adv-x="493" 
d="M160 365q38 6 70 6q114 0 170 -49t56 -134q0 -88 -58 -142.5t-166 -54.5q-38 0 -72 8.5t-56 21t-38.5 24.5t-23.5 21l-8 8l53 70q2 -3 6 -7t18.5 -15t30 -19.5t40 -15.5t49.5 -7q58 0 91.5 28.5t33.5 78.5q0 46 -36.5 73.5t-106.5 27.5q-36 0 -69 -6t-46.5 -10.5
t-15.5 -6.5l-14 10l9 325h347v-86h-260z" />
    <glyph glyph-name="six" unicode="6" horiz-adv-x="536" 
d="M292 377q91 0 148.5 -52.5t57.5 -133.5q0 -86 -61.5 -143t-154.5 -57q-106 0 -171.5 72.5t-65.5 227.5q0 149 67 231.5t180 82.5q36 0 68.5 -8t52 -19.5t34.5 -23.5t21 -20l6 -8l-54 -74l-11 11t-19 17t-24 15.5t-34 13.5t-40 5q-143 0 -143 -192v-9q51 64 143 64z
M283 295q-52 0 -86.5 -29t-40.5 -76q10 -56 43 -83.5t81 -27.5q52 0 85 32t33 79q0 46 -31.5 75.5t-83.5 29.5z" />
    <glyph glyph-name="seven" unicode="7" horiz-adv-x="453" 
d="M439 600v-67l-259 -533h-113l255 514h-295v86h412z" />
    <glyph glyph-name="eight" unicode="8" horiz-adv-x="529" 
d="M265 -9q-103 0 -162 51.5t-59 130.5q0 95 85 142q-69 44 -69 124q0 72 54.5 119t150.5 47q95 0 149.5 -47t54.5 -119q0 -80 -69 -124q84 -48 84 -142q0 -79 -58.5 -130.5t-160.5 -51.5zM265 346q50 0 78 24t28 63q0 37 -29 61.5t-77 24.5q-50 0 -78.5 -24.5t-28.5 -61.5
q0 -39 28 -63t79 -24zM384 175q0 42 -33 70.5t-86 28.5q-54 0 -87 -28.5t-33 -70.5q0 -43 33 -70.5t87 -27.5q53 0 86 27.5t33 70.5z" />
    <glyph glyph-name="nine" unicode="9" horiz-adv-x="534" 
d="M248 82q137 0 137 196v8q-52 -63 -143 -63t-148.5 52t-57.5 134q0 86 61.5 143.5t154.5 57.5q106 0 171.5 -72.5t65.5 -228.5q0 -150 -64 -234t-176 -84q-37 0 -69 8t-52 19.5t-35 23.5t-21 20l-6 8l55 74l11 -11t19 -17t23.5 -15.5t33.5 -13.5t40 -5zM251 305
q51 0 85 28t42 75q-11 57 -44 85.5t-80 28.5q-52 0 -85 -32.5t-33 -79.5q0 -46 31.5 -75.5t83.5 -29.5z" />
    <glyph glyph-name="colon" unicode=":" horiz-adv-x="224" 
d="M84 338q-13 12 -13.5 28.5t10.5 29.5q12 13 29 14t30 -11t13.5 -28.5t-10.5 -29.5q-12 -13 -29 -13.5t-30 10.5zM84 18q-13 11 -13.5 28t10.5 30q12 13 29 13.5t30 -10.5q13 -12 13.5 -29t-10.5 -30q-12 -13 -29 -13.5t-30 11.5z" />
    <glyph glyph-name="semicolon" unicode=";" horiz-adv-x="239" 
d="M121 310q-25 0 -41.5 17t-16.5 41q0 25 16.5 42t41.5 17t42 -17t17 -42q0 -24 -17 -41t-42 -17zM36 -71q65 15 73 63q-20 3 -33 19t-13 37q0 24 17 41.5t41 17.5q25 0 42 -17.5t17 -41.5v-7q0 -63 -34 -107.5t-95 -56.5z" />
    <glyph glyph-name="less" unicode="&#x3c;" horiz-adv-x="372" 
d="M308 511v-102l-182 -110l182 -111v-101l-272 182v60z" />
    <glyph glyph-name="equal" unicode="=" horiz-adv-x="460" 
d="M402 427v-78h-344v78h344zM402 236v-78h-344v78h344z" />
    <glyph glyph-name="greater" unicode="&#x3e;" horiz-adv-x="372" 
d="M64 87v101l182 111l-182 110v102l272 -182v-60z" />
    <glyph glyph-name="question" unicode="?" horiz-adv-x="430" 
d="M28 558q7 6 19.5 15t55.5 24.5t91 15.5q92 0 146.5 -43t54.5 -117q0 -40 -15.5 -72t-38 -52.5t-45.5 -38.5t-40.5 -39.5t-19.5 -45.5l-2 -24h-73v36q0 30 13.5 55.5t32.5 44t37.5 36t32 39.5t13.5 46q0 38 -27.5 60.5t-75.5 22.5q-30 0 -58.5 -10.5t-42.5 -20.5l-13 -10z
M140 53q0 25 17 42t42 17t42.5 -17t17.5 -42q0 -26 -17.5 -43.5t-42.5 -17.5t-42 17.5t-17 43.5z" />
    <glyph glyph-name="at" unicode="@" horiz-adv-x="1002" 
d="M748 51q-66 0 -99 30.5t-42 66.5h-6q-6 -11 -16.5 -23.5t-30 -29t-50 -27.5t-65.5 -11q-79 0 -128 50.5t-49 135.5q0 113 66.5 183.5t159.5 70.5q104 0 138 -83l16 73h76l-28 -243q-3 -30 -3 -43q0 -37 21.5 -60t58.5 -23q56 0 91.5 53t35.5 144q0 67 -25.5 132.5
t-72 119.5t-121.5 87.5t-165 33.5q-179 0 -297 -121t-118 -289q0 -171 120.5 -292t290.5 -121q56 0 109 14t77 29l25 14l24 -51q-9 -7 -27.5 -17.5t-79.5 -27.5t-128 -17q-135 0 -244 65.5t-167.5 172t-58.5 229.5q0 127 58.5 233.5t168 171t247.5 64.5q192 0 321.5 -125
t129.5 -303q0 -115 -59 -190.5t-154 -75.5zM466 144q59 0 98 46t39 112q0 51 -28.5 80t-75.5 29q-56 0 -95.5 -43.5t-39.5 -110.5q0 -53 28 -83t74 -30z" />
    <glyph glyph-name="A" unicode="A" horiz-adv-x="596" 
d="M492 0l-50 124h-289l-49 -124h-101l247 600h96l247 -600h-101zM411 206l-113 281l-113 -281h226z" />
    <glyph glyph-name="B" unicode="B" horiz-adv-x="603" 
d="M337 600q99 0 153 -42t54 -121q0 -44 -22.5 -77.5t-62.5 -49.5v-5q47 -13 75 -48t28 -86q0 -84 -57.5 -127.5t-158.5 -43.5h-271v600h262zM171 343h163q50 0 79.5 23.5t29.5 61.5q0 86 -108 86h-164v-171zM171 86h177q50 0 81.5 23.5t31.5 66.5q0 38 -30.5 61.5
t-78.5 25.5h-181v-177z" />
    <glyph glyph-name="C" unicode="C" horiz-adv-x="561" 
d="M540 67l-8 -8t-23.5 -18.5t-39.5 -23.5t-56.5 -18t-73.5 -8q-134 0 -218 89.5t-84 218.5t84 217.5t218 88.5q61 0 111 -19t70 -38l20 -19l-54 -73q-6 6 -17.5 16t-49.5 26t-78 16q-89 0 -147 -62.5t-58 -152.5q0 -91 58 -153.5t147 -62.5q40 0 76.5 14.5t52.5 28.5l16 15
z" />
    <glyph glyph-name="D" unicode="D" horiz-adv-x="632" 
d="M594 300q0 -135 -84.5 -217.5t-223.5 -82.5h-211v600h211q139 0 223.5 -82.5t84.5 -217.5zM171 86h108q94 0 155.5 57.5t61.5 156.5q0 100 -61 157t-156 57h-108v-428z" />
    <glyph glyph-name="E" unicode="E" horiz-adv-x="540" 
d="M171 263v-177h330v-86h-426v600h426v-86h-330v-169h281v-82h-281z" />
    <glyph glyph-name="F" unicode="F" horiz-adv-x="533" 
d="M171 262v-262h-96v600h428v-86h-332v-170h281v-82h-281z" />
    <glyph glyph-name="G" unicode="G" horiz-adv-x="639" 
d="M340 605q41 0 78.5 -8t61 -19.5t41 -23t25.5 -19.5l7 -8l-57 -73l-6.5 6.5t-19.5 14.5t-32 18t-43.5 14.5t-55.5 6.5q-90 0 -146 -62.5t-56 -152.5q0 -92 55 -154.5t144 -62.5q78 0 125 47t48 122v5h-186v82h288v-58q0 -131 -74 -210t-201 -79q-135 0 -216.5 88.5
t-81.5 219.5q0 130 83 218t219 88z" />
    <glyph glyph-name="H" unicode="H" horiz-adv-x="650" 
d="M479 0v256h-308v-256h-96v600h96v-262h308v262h95v-600h-95z" />
    <glyph glyph-name="I" unicode="I" horiz-adv-x="246" 
d="M75 0v600h96v-600h-96z" />
    <glyph glyph-name="J" unicode="J" horiz-adv-x="442" 
d="M373 198q0 -98 -52.5 -155t-154.5 -57q-44 0 -82.5 14t-50 22.5t-18.5 15.5l46 75q41 -34 100 -34q116 0 116 139v382h96v-402z" />
    <glyph glyph-name="K" unicode="K" horiz-adv-x="585" 
d="M456 600h114v-12l-225 -239l227 -336v-13h-105l-188 278l-108 -115v-163h-96v600h96v-302z" />
    <glyph glyph-name="L" unicode="L" horiz-adv-x="494" 
d="M75 600h96v-514h297v-86h-393v600z" />
    <glyph glyph-name="M" unicode="M" horiz-adv-x="725" 
d="M380 194h-34l-176 226v-420h-95v600h73l215 -281l215 281h72l1 -600h-95v422z" />
    <glyph glyph-name="N" unicode="N" horiz-adv-x="666" 
d="M520 0l-349 432v-432h-96v600h72l348 -429v429h96v-600h-71z" />
    <glyph glyph-name="O" unicode="O" horiz-adv-x="675" 
d="M337 -9q-132 0 -216 89t-84 219q0 129 84 217.5t216 88.5q134 0 217.5 -88.5t83.5 -217.5q0 -130 -83.5 -219t-217.5 -89zM337 84q90 0 146.5 62t56.5 153q0 90 -56.5 152t-146.5 62q-88 0 -144.5 -62t-56.5 -152q0 -91 56.5 -153t144.5 -62z" />
    <glyph glyph-name="P" unicode="P" horiz-adv-x="577" 
d="M321 600q106 0 167.5 -53.5t61.5 -147.5q0 -97 -62.5 -151t-168.5 -54h-148v-194h-96v600h246zM452 398q0 57 -36.5 86.5t-99.5 29.5h-145v-235h146q63 0 99 29.5t36 89.5z" />
    <glyph glyph-name="Q" unicode="Q" horiz-adv-x="675" 
d="M638 299q0 -90 -42 -163t-116 -111l82 -139h-107l-62 110q-30 -5 -56 -5q-132 0 -216 89t-84 219q0 129 84 217.5t216 88.5q134 0 217.5 -88.5t83.5 -217.5zM136 299q0 -91 56.5 -153t144.5 -62q90 0 146.5 62t56.5 153q0 90 -56.5 152t-146.5 62q-88 0 -144.5 -62
t-56.5 -152z" />
    <glyph glyph-name="R" unicode="R" horiz-adv-x="599" 
d="M320 600q106 0 168 -53.5t62 -147.5q0 -68 -34 -115.5t-94 -68.5v-6l145 -194v-15h-105l-145 198h-146v-198h-96v600h245zM451 398q0 58 -36 87t-99 29h-145v-231h151q59 0 94 29t35 86z" />
    <glyph glyph-name="S" unicode="S" horiz-adv-x="517" 
d="M88 139q8 -6 22 -16t58.5 -26t89.5 -16q61 0 90.5 21.5t29.5 58.5q0 36 -28.5 57t-110.5 46q-105 32 -152 71.5t-47 104.5q0 77 57.5 121t162.5 44q66 0 117.5 -15.5t70.5 -30.5l19 -15l-52 -78q-6 6 -18 14t-52.5 22t-84.5 14q-115 0 -115 -73q0 -28 29 -47.5t107 -42.5
q109 -31 156 -74t47 -112q0 -77 -58 -126.5t-165 -49.5q-68 0 -124 18.5t-79 36.5l-22 19z" />
    <glyph glyph-name="T" unicode="T" horiz-adv-x="522" 
d="M498 600v-86h-189v-514h-96v514h-189v86h474z" />
    <glyph glyph-name="U" unicode="U" horiz-adv-x="633" 
d="M317 -9q-115 0 -182.5 74t-67.5 194v341h96v-341q0 -79 39.5 -127.5t114.5 -48.5t114 48.5t39 127.5v341h96v-341q0 -120 -66.5 -194t-182.5 -74z" />
    <glyph glyph-name="V" unicode="V" horiz-adv-x="596" 
d="M104 600l194 -487l194 487h101l-247 -600h-96l-247 600h101z" />
    <glyph glyph-name="W" unicode="W" horiz-adv-x="804" 
d="M280 0h-75l-191 600h102l124 -432l120 432h82l119 -433l126 433h103l-192 -600h-74l-123 438z" />
    <glyph glyph-name="X" unicode="X" horiz-adv-x="549" 
d="M537 0h-116l-124 208l-23 45l-23 -45l-123 -208h-115l189 308l-184 292h116l120 -198l21 -44l21 44l120 198h115l-185 -292z" />
    <glyph glyph-name="Y" unicode="Y" horiz-adv-x="536" 
d="M533 600l-217 -369v-231h-96v230l-217 370h107l137 -238l21 -46h1l22 46l136 238h106z" />
    <glyph glyph-name="Z" unicode="Z" horiz-adv-x="533" 
d="M372 514h-331v86h459v-70l-336 -444h331v-86h-465v68z" />
    <glyph glyph-name="bracketleft" unicode="[" horiz-adv-x="325" 
d="M309 700v-78h-158v-674h158v-78h-249v830h249z" />
    <glyph glyph-name="backslash" unicode="\" horiz-adv-x="373" 
d="M126 798l216 -926h-95l-216 926h95z" />
    <glyph glyph-name="bracketright" unicode="]" horiz-adv-x="325" 
d="M174 -52v674h-157v78h249v-830h-249v78h157z" />
    <glyph glyph-name="asciicircum" unicode="^" horiz-adv-x="419" 
d="M120 497h-76l137 196h55l139 -196h-79l-88 127z" />
    <glyph glyph-name="underscore" unicode="_" horiz-adv-x="537" 
d="M489 -40v-78h-442v78h442z" />
    <glyph glyph-name="grave" unicode="`" horiz-adv-x="279" 
d="M160 647l46 -150h-66l-90 133z" />
    <glyph glyph-name="a" unicode="a" horiz-adv-x="464" 
d="M342 0l-12 56h-4q-42 -66 -140 -66q-73 0 -115.5 37.5t-42.5 95.5q0 64 49.5 101t142.5 37q49 0 97 -14v14q0 90 -110 90q-28 0 -56.5 -8t-42.5 -16l-15 -8l-33 73q61 38 161 38q93 0 140 -45.5t47 -125.5v-259h-66zM317 186q-40 16 -87 16q-110 0 -110 -73
q0 -31 23 -50.5t63 -19.5q48 0 79.5 28t31.5 68v31z" />
    <glyph glyph-name="b" unicode="b" horiz-adv-x="521" 
d="M155 605v-240h4q1 3 3.5 7t13.5 15.5t24.5 20t38.5 15.5t55 7q82 0 137 -61.5t55 -158.5q0 -99 -55.5 -159.5t-139.5 -60.5q-32 0 -59 8t-42.5 19.5t-27 22.5t-15.5 19l-4 8h-4l-13 -67h-66v605h95zM150 210q0 -64 34.5 -102.5t86.5 -38.5t85.5 39.5t33.5 101.5
q0 63 -33.5 102t-85.5 39t-86.5 -38t-34.5 -103z" />
    <glyph glyph-name="c" unicode="c" horiz-adv-x="409" 
d="M250 -10q-96 0 -155.5 61t-59.5 158t59.5 159t155.5 62q40 0 72.5 -9t44.5 -19l12 -9l-26 -70q-39 28 -96 28q-55 0 -90.5 -38t-35.5 -104t35 -103t91 -37q25 0 49 7t36 14l11 7l25 -69q-4 -4 -12.5 -10.5t-42 -17t-73.5 -10.5z" />
    <glyph glyph-name="d" unicode="d" horiz-adv-x="522" 
d="M367 605h95v-605h-64l-15 63h-4q-1 -3 -4.5 -8t-15.5 -17.5t-27 -22t-42 -17.5t-58 -8q-85 0 -141 60.5t-56 159.5q0 97 55.5 158.5t138.5 61.5q45 0 78.5 -15t44.5 -30l11 -15h4v235zM373 210q0 65 -34.5 103t-87.5 38q-52 0 -86 -39.5t-34 -101.5t34 -101.5t86 -39.5
t87 38.5t35 102.5z" />
    <glyph glyph-name="e" unicode="e" horiz-adv-x="458" 
d="M428 196h-301q4 -64 39 -97t93 -33q32 0 60.5 9t40.5 19l13 9l34 -65q-5 -6 -16 -14t-50.5 -22t-87.5 -14q-100 0 -159 61.5t-59 159.5q0 96 56 158.5t147 62.5q89 0 139.5 -57.5t50.5 -151.5v-25zM334 260q-12 95 -98 95q-88 0 -104 -95h202z" />
    <glyph glyph-name="f" unicode="f" horiz-adv-x="320" 
d="M247 612q26 0 49.5 -5t33.5 -10l11 -5l-29 -72q-24 12 -56 12q-30 0 -47.5 -18.5t-17.5 -51.5v-42h118v-75h-118v-345h-95v345h-76v75h76v38q0 72 39.5 113t111.5 41z" />
    <glyph glyph-name="g" unicode="g" horiz-adv-x="470" 
d="M383 345q20 -15 20 -67q0 -56 -44.5 -97.5t-125.5 -41.5q-49 0 -86 21q-29 -12 -29 -36q0 -13 7.5 -21t37.5 -15t85 -10q111 -5 156.5 -35t45.5 -90q0 -59 -57.5 -99.5t-158.5 -40.5q-104 0 -153.5 31.5t-49.5 86.5q0 61 71 96q-66 25 -66 89q0 55 59 82q-30 34 -30 83
q0 63 45 105t123 42q34 0 63 -8h148v-73h-61v-2zM233 362q-38 0 -61 -23t-23 -56t22.5 -55.5t61.5 -22.5q41 0 64 22t23 56q0 33 -23.5 56t-63.5 23zM248 3q-43 2 -62 4q-64 -25 -64 -69q0 -26 28 -42.5t84 -16.5q60 0 91.5 18t31.5 47q0 55 -109 59z" />
    <glyph glyph-name="h" unicode="h" horiz-adv-x="512" 
d="M156 605v-225h4q41 50 125 50q79 0 125 -51.5t46 -137.5v-241h-95v231q0 52 -27 84.5t-74 32.5t-74.5 -31t-29.5 -69v-248h-95v605h95z" />
    <glyph glyph-name="i" unicode="i" horiz-adv-x="219" 
d="M110 499q-25 0 -42 16t-17 41t17 41.5t42 16.5t42 -16.5t17 -41.5t-17 -41t-42 -16zM157 420v-420h-95v420h95z" />
    <glyph glyph-name="j" unicode="j" horiz-adv-x="219" 
d="M109 499q-25 0 -42 16t-17 41t17 41.5t42 16.5t42.5 -16.5t17.5 -41.5q0 -24 -17.5 -40.5t-42.5 -16.5zM16 -77q46 0 46 47v450h95v-455q0 -56 -30 -88.5t-88 -32.5h-36v79h13z" />
    <glyph glyph-name="k" unicode="k" horiz-adv-x="454" 
d="M269 238l177 -238h-116l-133 175l-41 -42v-133h-95v605h95v-360h1l168 175h118z" />
    <glyph glyph-name="l" unicode="l" horiz-adv-x="220" 
d="M158 605v-605h-95v605h95z" />
    <glyph glyph-name="m" unicode="m" horiz-adv-x="807" 
d="M135 360h6q46 70 139 70q102 0 149 -77h5q46 77 145 77q81 0 126.5 -51.5t45.5 -138.5v-240h-95v231q0 52 -25.5 84.5t-74.5 32.5q-48 0 -74.5 -29.5t-27.5 -68.5v-250h-95v243q0 47 -26.5 76t-75.5 29q-48 0 -73.5 -30t-27.5 -69v-249h-95v420h62z" />
    <glyph glyph-name="n" unicode="n" horiz-adv-x="512" 
d="M123 420l12 -60h6q23 36 56 53t85 17q81 0 128 -52t47 -138v-240h-95v231q0 52 -27 84.5t-75 32.5t-75 -31t-29 -69v-248h-95v420h62z" />
    <glyph glyph-name="o" unicode="o" horiz-adv-x="499" 
d="M465 208q0 -97 -62.5 -157.5t-153.5 -60.5t-153 60t-62 158q0 99 62 160.5t153 61.5t153.5 -62t62.5 -160zM249 66q52 0 87 39t35 104t-35 105t-87 40t-87 -40t-35 -105t35 -104t87 -39z" />
    <glyph glyph-name="p" unicode="p" horiz-adv-x="522" 
d="M156 -156h-95v576h63l13 -60h7l5 7.5t15.5 16.5t27.5 21.5t41.5 17t57.5 7.5q85 0 140 -60.5t55 -159.5q0 -97 -55 -158.5t-137 -61.5q-29 0 -54 6t-39 15t-24 18t-13 15l-4 6h-4v-206zM151 210q0 -64 34.5 -102.5t86.5 -38.5t85.5 39.5t33.5 101.5t-34 101.5t-85 39.5
q-52 0 -86.5 -38.5t-34.5 -102.5z" />
    <glyph glyph-name="q" unicode="q" horiz-adv-x="522" 
d="M367 -156v211h-4q-1 -3 -3.5 -7t-13.5 -15.5t-24.5 -20t-38.5 -15.5t-54 -7q-83 0 -138.5 61.5t-55.5 158.5q0 99 56 159.5t141 60.5q32 0 59 -8t42.5 -19.5t26.5 -23t15 -19.5l4 -8h4l14 68h65v-576h-95zM373 210q0 64 -35 102.5t-87 38.5t-86 -39.5t-34 -101.5
t34 -101.5t86 -39.5t87 38.5t35 102.5z" />
    <glyph glyph-name="r" unicode="r" horiz-adv-x="295" 
d="M260 342q-44 0 -74 -31t-30 -79v-232h-95v420h62l12 -68h5q32 69 119 69h24v-79h-23z" />
    <glyph glyph-name="s" unicode="s" horiz-adv-x="417" 
d="M69 105q61 -41 140 -41q80 0 80 49q0 22 -26 35.5t-63 23t-74 22.5t-63 41.5t-26 71.5q0 54 41 88.5t120 34.5q50 0 94 -9t62 -17l19 -9l-33 -75q-54 36 -132 36t-78 -46q0 -21 26 -34t63.5 -21.5t75 -21t63.5 -42t26 -74.5q0 -56 -42.5 -91.5t-130.5 -35.5q-54 0 -98 12
t-61 24l-17 13z" />
    <glyph glyph-name="t" unicode="t" horiz-adv-x="331" 
d="M90 548h95v-128h114v-75h-114v-217q0 -57 54 -57q12 0 25.5 4.5t20.5 8.5l7 4l29 -67q-40 -31 -100 -31q-67 0 -99 36.5t-32 100.5v218h-75v75h75v128z" />
    <glyph glyph-name="u" unicode="u" horiz-adv-x="510" 
d="M449 420v-420h-62l-16 59h-5q-43 -69 -139 -69q-81 0 -126 51.5t-45 138.5v240h95v-232q0 -53 24.5 -85.5t72.5 -32.5q50 0 77.5 31.5t28.5 70.5v248h95z" />
    <glyph glyph-name="v" unicode="v" horiz-adv-x="458" 
d="M196 0l-190 420h104l109 -277q8 -16 8 -31h5q0 11 8 31l109 277h104l-190 -420h-67z" />
    <glyph glyph-name="w" unicode="w" horiz-adv-x="660" 
d="M110 420l84 -277q6 -20 6 -31h7q0 6 8 33l76 275h81l76 -275q6 -22 6 -33h7q0 14 7 31l85 277h96l-153 -420h-82l-75 267q-7 19 -7 37h-5q0 -18 -7 -37l-76 -267h-80l-154 420h100z" />
    <glyph glyph-name="x" unicode="x" horiz-adv-x="444" 
d="M22 420h108l92 -144h3l93 144h107l-146 -203l154 -217h-108l-100 158h-3l-102 -158h-106l149 217z" />
    <glyph glyph-name="y" unicode="y" horiz-adv-x="454" 
d="M99 -156l86 184l-178 392h104l111 -277q7 -23 7 -31h5q0 11 6 31l110 277h97l-250 -576h-98z" />
    <glyph glyph-name="z" unicode="z" horiz-adv-x="425" 
d="M35 51l230 292h-229v77h354v-46l-227 -297h227v-77h-355v51z" />
    <glyph glyph-name="braceleft" unicode="{" horiz-adv-x="288" 
d="M40 325q62 0 62 87v163q0 130 141 140l14 -80q-32 -5 -44.5 -18.5t-12.5 -48.5v-167q0 -90 -62 -111v-9q62 -20 62 -109v-168q0 -35 12.5 -48.5t44.5 -18.5l-14 -79q-141 9 -141 138v165q0 88 -62 88h-25v76h25z" />
    <glyph glyph-name="bar" unicode="|" horiz-adv-x="207" 
d="M60 -128v815h87v-815h-87z" />
    <glyph glyph-name="braceright" unicode="}" horiz-adv-x="288" 
d="M273 249h-24q-63 0 -63 -88v-165q0 -129 -140 -138l-14 79q31 5 43.5 18.5t12.5 48.5v168q0 89 62 109v9q-62 22 -62 111v167q0 35 -12.5 48.5t-43.5 18.5l14 80q140 -10 140 -140v-163q0 -87 63 -87h24v-76z" />
    <glyph glyph-name="asciitilde" unicode="~" horiz-adv-x="477" 
d="M311 322q20 0 39.5 6t29.5 12l10 7l31 -59q-4 -4 -13 -10.5t-37 -17.5t-59 -11q-28 0 -71.5 16t-74.5 16q-20 0 -40 -6.5t-30 -12.5l-10 -6l-30 58q5 4 13.5 11t37 18t57.5 11q28 0 71.5 -16t75.5 -16z" />
    <glyph glyph-name="uni00A0" unicode="&#xa0;" horiz-adv-x="215" 
 />
    <glyph glyph-name="exclamdown" unicode="&#xa1;" horiz-adv-x="210" 
d="M44 370q0 26 18 43.5t43 17.5t43 -17.5t18 -43.5t-18 -44t-43 -18t-43 18t-18 44zM48 -177l24 417h65l24 -417h-113z" />
    <glyph glyph-name="cent" unicode="&#xa2;" horiz-adv-x="428" 
d="M194 86q-71 19 -113 75.5t-42 135.5q0 95 59 156.5t153 64.5l11 82h51l-12 -85q25 -4 46.5 -12.5t30.5 -14.5l9 -6l-26 -71q-28 19 -70 26l-37 -280h11q25 0 49 7t36 14l11 7l25 -70q-5 -4 -14.5 -10t-43 -16.5t-71.5 -10.5h-13l-10 -78h-51zM135 297q0 -45 18.5 -78
t50.5 -49l36 267q-46 -8 -75.5 -46t-29.5 -94z" />
    <glyph glyph-name="sterling" unicode="&#xa3;" horiz-adv-x="504" 
d="M60 0v86l2 1q3 1 6 3.5t8 5.5t9.5 7.5t9.5 10.5t9.5 13.5t8 16t5.5 19t2 22.5q0 20 -15 72h-62v70h45q-12 50 -12 89q0 80 59 135.5t162 55.5q32 0 61.5 -6.5t48 -15.5t32.5 -18.5t21 -16.5l6 -6l-57 -75q-4 5 -12.5 12.5t-37 20t-60.5 12.5q-57 0 -86.5 -30.5
t-29.5 -78.5q0 -35 10 -78h198v-70h-182q13 -46 13 -71q0 -57 -32 -100h263v-86h-393z" />
    <glyph glyph-name="yen" unicode="&#xa5;" horiz-adv-x="590" 
d="M560 600l-178 -303h125v-69h-164v-71h164v-70h-164v-87h-96v87h-163v70h163v71h-163v69h124l-178 303h107l137 -238l21 -46h2l21 46l135 238h107z" />
    <glyph glyph-name="brokenbar" unicode="&#xa6;" horiz-adv-x="216" 
d="M65 673h87v-343h-87v343zM65 190h87v-343h-87v343z" />
    <glyph glyph-name="section" unicode="&#xa7;" horiz-adv-x="526" 
d="M269 613q63 0 113.5 -11.5t69.5 -23.5l20 -12l-46 -73q-6 4 -18.5 11t-53.5 18t-85 11q-105 0 -105 -50q0 -24 23.5 -38.5t80.5 -29.5q88 -23 139 -54t51 -79q0 -46 -33 -74q61 -36 61 -89q0 -57 -56.5 -95t-167.5 -38q-67 0 -123.5 15t-79.5 30l-23 15l46 70
q8 -5 22.5 -13t61 -21t94.5 -13q114 0 114 50q0 28 -24.5 41.5t-101.5 35.5q-80 23 -123.5 51.5t-43.5 75.5q0 43 35 67q-62 34 -62 91q0 60 54.5 96t160.5 36zM346 243q16 13 16 34q0 22 -31 38t-95 33q-38 10 -43 12q-18 -10 -18 -32q0 -35 106 -65q60 -18 65 -20z" />
    <glyph glyph-name="dieresis" unicode="&#xa8;" horiz-adv-x="455" 
d="M88 711q0 21 16 37.5t37 16.5t37 -16.5t16 -37.5q0 -22 -16 -38t-37 -16t-37 16t-16 38zM257 711q0 21 16 37.5t37 16.5t37 -16.5t16 -37.5q0 -22 -16 -38t-37 -16t-37 16t-16 38z" />
    <glyph glyph-name="copyright" unicode="&#xa9;" horiz-adv-x="682" 
d="M342 605q136 0 217.5 -88t81.5 -218t-81.5 -217.5t-217.5 -87.5t-218 88t-82 217q0 130 82 218t218 88zM342 563q-116 0 -185.5 -75.5t-69.5 -188.5q0 -112 69.5 -187.5t185.5 -75.5t186 75.5t70 187.5q0 113 -70 188.5t-186 75.5zM419 375q-25 25 -68 25q-44 0 -70 -28
t-26 -72q0 -43 26 -71t70 -28q19 0 36 6.5t25 12.5l7 6l33 -49q-4 -4 -11 -10t-34 -16.5t-59 -10.5q-74 0 -117 45.5t-43 114.5t43 115t117 46q32 0 58 -9.5t36 -18.5l10 -9z" />
    <glyph glyph-name="ordfeminine" unicode="&#xaa;" horiz-adv-x="395" 
d="M34 371q0 49 38 77.5t101 28.5q67 0 95 -26v10q0 47 -19 69.5t-67 22.5t-92 -22l-22 57q59 26 125 26q79 0 112.5 -39.5t33.5 -115.5v-185h-53l-10 37h-4q-29 -45 -113 -45q-54 0 -89.5 29.5t-35.5 75.5zM105 374q0 -26 20.5 -41.5t55.5 -15.5q36 0 60.5 16.5t26.5 39.5
v5q-1 24 -24 38t-59 14q-38 0 -59 -15t-21 -41z" />
    <glyph glyph-name="guillemotleft" unicode="&#xab;" horiz-adv-x="474" 
d="M160 408h81v-10l-120 -186v-6l120 -188v-10h-81l-123 189v22zM356 408h80v-10l-120 -186v-6l120 -188v-10h-80l-124 189v22z" />
    <glyph glyph-name="logicalnot" unicode="&#xac;" horiz-adv-x="551" 
d="M490 346v-346h-80v268h-365v78h445z" />
    <glyph glyph-name="registered" unicode="&#xae;" horiz-adv-x="542" 
d="M497 380q0 -99 -62 -166t-165 -67q-102 0 -163.5 67.5t-61.5 165.5q0 99 61 166t164 67t165 -67t62 -166zM452 380q0 82 -50.5 136t-131.5 54t-130.5 -53t-49.5 -137q0 -82 50 -136t130 -54q81 0 131.5 54t50.5 136zM279 485q38 0 61.5 -20t23.5 -53q0 -43 -37 -61v-1
l40 -57v-10h-46l-41 57h-51v-57h-45v202h95zM229 380h48q40 0 40 32q0 31 -39 31h-49v-63z" />
    <glyph glyph-name="macron" unicode="&#xaf;" horiz-adv-x="526" 
d="M416 728v-60h-295v60h295z" />
    <glyph glyph-name="degree" unicode="&#xb0;" horiz-adv-x="294" 
d="M147 672q50 0 82 -31t32 -77t-32 -76.5t-82 -30.5t-82 30.5t-32 76.5t32 77t82 31zM147 623q-26 0 -42.5 -17t-16.5 -42q0 -24 16.5 -40t42.5 -16t42.5 16t16.5 40q0 25 -16.5 42t-42.5 17z" />
    <glyph glyph-name="plusminus" unicode="&#xb1;" horiz-adv-x="522" 
d="M223 338h-165v78h165v167h80v-167h161v-78h-161v-161h-80v161zM58 32v78h406v-78h-406z" />
    <glyph glyph-name="uni00B2" unicode="&#xb2;" horiz-adv-x="341" 
d="M184 511q31 27 31 55q0 50 -56 50q-39 0 -78 -35l-35 51q5 5 14 12.5t39.5 20t62.5 12.5q60 0 91 -30t31 -76q0 -56 -44 -92l-94 -80h145v-57h-241v53z" />
    <glyph glyph-name="uni00B3" unicode="&#xb3;" horiz-adv-x="329" 
d="M276 668v-43l-67 -86q81 -14 81 -94q0 -48 -34 -79.5t-98 -31.5q-34 0 -63.5 11.5t-41.5 20.5t-15 13l35 48q32 -34 83 -34q32 0 49.5 15t17.5 37q0 47 -59 49h-40v35l64 82h-139v57h227z" />
    <glyph glyph-name="acute" unicode="&#xb4;" horiz-adv-x="279" 
d="M54 497l52 145l111 -13l-98 -132h-65z" />
    <glyph glyph-name="uni00B5" unicode="&#xb5;" horiz-adv-x="509" 
d="M451 420v-420h-63l-16 59h-4q-46 -69 -139 -69q-45 0 -78 22l1 -140h-95v548h95v-232q0 -53 25 -85.5t73 -32.5q49 0 77 32t29 70v248h95z" />
    <glyph glyph-name="paragraph" unicode="&#xb6;" horiz-adv-x="534" 
d="M311 122q-124 0 -202 64t-78 180q0 113 76.5 174t201.5 61h158v-683h-96v204h-60z" />
    <glyph glyph-name="periodcentered" unicode="&#xb7;" horiz-adv-x="216" 
d="M47 359q0 26 17.5 44t43.5 18t43.5 -18t17.5 -44q0 -25 -17.5 -43t-43.5 -18t-43.5 18t-17.5 43z" />
    <glyph glyph-name="cedilla" unicode="&#xb8;" horiz-adv-x="206" 
d="M82 3h48l-14 -34q27 0 45.5 -17t18.5 -47q0 -33 -22 -52.5t-61 -19.5q-24 0 -44 7.5t-27 14.5l-8 7l23 36q29 -21 53 -21q38 0 38 30q0 28 -36 28l-23 -3l-16 19z" />
    <glyph glyph-name="uni00B9" unicode="&#xb9;" horiz-adv-x="214" 
d="M154 668v-326h-64v269h-67v57h131z" />
    <glyph glyph-name="ordmasculine" unicode="&#xba;" horiz-adv-x="400" 
d="M200 613q72 0 118.5 -47.5t46.5 -126.5q0 -76 -46.5 -123t-118.5 -47t-118.5 47t-46.5 123q0 79 46.5 126.5t118.5 47.5zM200 551q-43 0 -68.5 -30.5t-25.5 -80.5q0 -49 25.5 -79t68.5 -30t68.5 30t25.5 79q0 51 -25.5 81t-68.5 30z" />
    <glyph glyph-name="guillemotright" unicode="&#xbb;" horiz-adv-x="473" 
d="M119 8h-82v10l121 188v6l-121 186v10h82l123 -189v-22zM314 8h-82v10l121 188v6l-121 186v10h82l123 -189v-22z" />
    <glyph glyph-name="onequarter" unicode="&#xbc;" horiz-adv-x="636" 
d="M501 600h80l-471 -600h-78zM175 600v-326h-65v269h-67v57h132zM493 326h49v-191h58v-54h-58v-81h-63v81h-165v41zM418 160q-4 -5 -27 -28v-1l39 4h49v100h-1z" />
    <glyph glyph-name="onehalf" unicode="&#xbd;" horiz-adv-x="694" 
d="M501 600h79l-471 -600h-78zM178 600v-326h-65v269h-67v57h132zM657 0v57h-144l94 80q43 36 43 92q0 46 -31 76t-91 30q-32 0 -61 -11.5t-42 -22.5l-13 -11l35 -51q43 35 79 35q55 0 55 -50q0 -28 -31 -55l-134 -116v-53h241z" />
    <glyph glyph-name="threequarters" unicode="&#xbe;" horiz-adv-x="706" 
d="M272 600v-43l-67 -86q81 -14 81 -94q0 -48 -34 -79.5t-98 -31.5q-75 0 -120 45l36 48q32 -34 82 -34q33 0 50 15t17 37q0 48 -58 49h-41v35l65 82h-140v57h227zM578 600h79l-470 -600h-79zM567 324h48v-192h56v-54h-56v-78h-62v78h-165v41zM491 158q-8 -10 -26 -28v-1
l39 3h49v101h-1z" />
    <glyph glyph-name="questiondown" unicode="&#xbf;" horiz-adv-x="423" 
d="M287 373q0 -25 -17 -42.5t-42 -17.5q-26 0 -43 17.5t-17 42.5t17.5 42.5t42.5 17.5t42 -17.5t17 -42.5zM399 -132q-7 -6 -19.5 -15.5t-55.5 -25t-91 -15.5q-91 0 -146 43.5t-55 117.5q0 40 15.5 71.5t38 52t45.5 38.5t40.5 39.5t19.5 45.5l2 24h73v-35q0 -30 -13.5 -55.5
t-32 -44t-37.5 -36.5t-32.5 -40t-13.5 -46q0 -37 27.5 -59.5t75.5 -22.5q30 0 58.5 10t41.5 20l14 10z" />
    <glyph glyph-name="Agrave" unicode="&#xc0;" horiz-adv-x="596" 
d="M282 785l46 -150h-66l-90 133zM492 0l-50 124h-289l-49 -124h-101l247 600h96l247 -600h-101zM411 206l-113 281l-113 -281h226z" />
    <glyph glyph-name="Aacute" unicode="&#xc1;" horiz-adv-x="596" 
d="M266 635l52 145l111 -13l-98 -132h-65zM492 0l-50 124h-289l-49 -124h-101l247 600h96l247 -600h-101zM411 206l-113 281l-113 -281h226z" />
    <glyph glyph-name="Acircumflex" unicode="&#xc2;" horiz-adv-x="596" 
d="M248 657h-75l87 119h75l88 -119h-76l-49 61zM492 0l-50 124h-289l-49 -124h-101l247 600h96l247 -600h-101zM411 206l-113 281l-113 -281h226z" />
    <glyph glyph-name="Atilde" unicode="&#xc3;" horiz-adv-x="596" 
d="M375 658q-33 0 -77 25.5t-61 25.5q-30 0 -39 -37l-4 -16l-67 7l5 30q16 89 94 89q32 0 76 -25.5t62 -25.5q31 0 40 38l3 15l67 -6l-4 -29q-16 -91 -95 -91zM492 0l-50 124h-289l-49 -124h-101l247 600h96l247 -600h-101zM411 206l-113 281l-113 -281h226z" />
    <glyph glyph-name="Adieresis" unicode="&#xc4;" horiz-adv-x="596" 
d="M160 711q0 21 16 37.5t37 16.5t37 -16.5t16 -37.5q0 -22 -16 -38t-37 -16t-37 16t-16 38zM329 711q0 21 16 37.5t37 16.5t37 -16.5t16 -37.5q0 -22 -16 -38t-37 -16t-37 16t-16 38zM492 0l-50 124h-289l-49 -124h-101l247 600h96l247 -600h-101zM411 206l-113 281
l-113 -281h226z" />
    <glyph glyph-name="Aring" unicode="&#xc5;" horiz-adv-x="596" 
d="M189 703q0 40 29.5 64.5t79.5 24.5q49 0 78 -24.5t29 -64.5q0 -39 -29.5 -63.5t-77.5 -24.5q-50 0 -79.5 24.5t-29.5 63.5zM349 703q0 40 -51 40q-52 0 -52 -40q0 -39 52 -39q51 0 51 39zM492 0l-50 124h-289l-49 -124h-101l247 600h96l247 -600h-101zM411 206l-113 281
l-113 -281h226z" />
    <glyph glyph-name="AE" unicode="&#xc6;" horiz-adv-x="886" 
d="M848 600v-86h-337v-171h281v-82h-281v-175h337v-86h-433v127h-225l-84 -127h-116l411 600h447zM415 210v248h-5l-165 -248h170z" />
    <glyph glyph-name="Ccedilla" unicode="&#xc7;" horiz-adv-x="561" 
d="M295 -11q-117 15 -187.5 101.5t-70.5 208.5q0 135 83.5 224.5t218.5 89.5q61 0 111 -19t70 -38l20 -19l-54 -73q-6 6 -17.5 16t-49.5 26t-78 16q-90 0 -147.5 -64t-57.5 -159q0 -94 57.5 -157.5t147.5 -63.5q40 0 76.5 14.5t52.5 29.5l16 14l54 -74q-3 -3 -7.5 -8
t-22.5 -17.5t-38.5 -22.5t-54 -18.5t-70.5 -9.5h-5l-6 -17q27 0 45.5 -17t18.5 -47q0 -33 -22 -52.5t-61 -19.5q-24 0 -44 7.5t-27 14.5l-8 7l23 36q29 -21 53 -21q38 0 38 30q0 28 -36 28l-23 -3l-16 19z" />
    <glyph glyph-name="Egrave" unicode="&#xc8;" horiz-adv-x="540" 
d="M273 785l46 -150h-66l-90 133zM171 263v-177h330v-86h-426v600h426v-86h-330v-169h281v-82h-281z" />
    <glyph glyph-name="Eacute" unicode="&#xc9;" horiz-adv-x="540" 
d="M257 635l52 145l111 -13l-98 -132h-65zM171 263v-177h330v-86h-426v600h426v-86h-330v-169h281v-82h-281z" />
    <glyph glyph-name="Ecircumflex" unicode="&#xca;" horiz-adv-x="540" 
d="M239 657h-75l87 119h75l88 -119h-76l-49 61zM171 263v-177h330v-86h-426v600h426v-86h-330v-169h281v-82h-281z" />
    <glyph glyph-name="Edieresis" unicode="&#xcb;" horiz-adv-x="540" 
d="M151 711q0 21 16 37.5t37 16.5t37 -16.5t16 -37.5q0 -22 -16 -38t-37 -16t-37 16t-16 38zM320 711q0 21 16 37.5t37 16.5t37 -16.5t16 -37.5q0 -22 -16 -38t-37 -16t-37 16t-16 38zM171 263v-177h330v-86h-426v600h426v-86h-330v-169h281v-82h-281z" />
    <glyph glyph-name="Igrave" unicode="&#xcc;" horiz-adv-x="246" 
d="M107 785l46 -150h-66l-90 133zM75 0v600h96v-600h-96z" />
    <glyph glyph-name="Iacute" unicode="&#xcd;" horiz-adv-x="246" 
d="M91 635l52 145l111 -13l-98 -132h-65zM75 0v600h96v-600h-96z" />
    <glyph glyph-name="Icircumflex" unicode="&#xce;" horiz-adv-x="246" 
d="M73 657h-75l87 119h75l88 -119h-76l-49 61zM75 0v600h96v-600h-96z" />
    <glyph glyph-name="Idieresis" unicode="&#xcf;" horiz-adv-x="246" 
d="M-15 711q0 21 16 37.5t37 16.5t37 -16.5t16 -37.5q0 -22 -16 -38t-37 -16t-37 16t-16 38zM154 711q0 21 16 37.5t37 16.5t37 -16.5t16 -37.5q0 -22 -16 -38t-37 -16t-37 16t-16 38zM75 0v600h96v-600h-96z" />
    <glyph glyph-name="Eth" unicode="&#xd0;" horiz-adv-x="634" 
d="M76 347v253h211q139 0 224 -82.5t85 -217.5t-85 -217.5t-224 -82.5h-211v261h-55v86h55zM172 347h156v-86h-156v-175h109q94 0 155 57.5t61 156.5q0 100 -61 157t-155 57h-109v-167z" />
    <glyph glyph-name="Ntilde" unicode="&#xd1;" horiz-adv-x="666" 
d="M411 659q-33 0 -77 25.5t-61 25.5q-30 0 -39 -37l-4 -16l-67 7l5 30q16 89 94 89q32 0 76 -25.5t62 -25.5q31 0 40 38l3 15l67 -6l-4 -29q-16 -91 -95 -91zM520 0l-349 432v-432h-96v600h72l348 -429v429h96v-600h-71z" />
    <glyph glyph-name="Ograve" unicode="&#xd2;" horiz-adv-x="675" 
d="M323 785l46 -150h-66l-90 133zM337 -9q-132 0 -216 89t-84 219q0 129 84 217.5t216 88.5q134 0 217.5 -88.5t83.5 -217.5q0 -130 -83.5 -219t-217.5 -89zM337 84q90 0 146.5 62t56.5 153q0 90 -56.5 152t-146.5 62q-88 0 -144.5 -62t-56.5 -152q0 -91 56.5 -153
t144.5 -62z" />
    <glyph glyph-name="Oacute" unicode="&#xd3;" horiz-adv-x="675" 
d="M307 635l52 145l111 -13l-98 -132h-65zM337 -9q-132 0 -216 89t-84 219q0 129 84 217.5t216 88.5q134 0 217.5 -88.5t83.5 -217.5q0 -130 -83.5 -219t-217.5 -89zM337 84q90 0 146.5 62t56.5 153q0 90 -56.5 152t-146.5 62q-88 0 -144.5 -62t-56.5 -152q0 -91 56.5 -153
t144.5 -62z" />
    <glyph glyph-name="Ocircumflex" unicode="&#xd4;" horiz-adv-x="675" 
d="M289 657h-75l87 119h75l88 -119h-76l-49 61zM337 -9q-132 0 -216 89t-84 219q0 129 84 217.5t216 88.5q134 0 217.5 -88.5t83.5 -217.5q0 -130 -83.5 -219t-217.5 -89zM337 84q90 0 146.5 62t56.5 153q0 90 -56.5 152t-146.5 62q-88 0 -144.5 -62t-56.5 -152
q0 -91 56.5 -153t144.5 -62z" />
    <glyph glyph-name="Otilde" unicode="&#xd5;" horiz-adv-x="675" 
d="M416 658q-33 0 -77 25.5t-61 25.5q-30 0 -39 -37l-4 -16l-67 7l5 30q16 89 94 89q32 0 76 -25.5t62 -25.5q31 0 40 38l3 15l67 -6l-4 -29q-16 -91 -95 -91zM337 -9q-132 0 -216 89t-84 219q0 129 84 217.5t216 88.5q134 0 217.5 -88.5t83.5 -217.5q0 -130 -83.5 -219
t-217.5 -89zM337 84q90 0 146.5 62t56.5 153q0 90 -56.5 152t-146.5 62q-88 0 -144.5 -62t-56.5 -152q0 -91 56.5 -153t144.5 -62z" />
    <glyph glyph-name="Odieresis" unicode="&#xd6;" horiz-adv-x="675" 
d="M201 711q0 21 16 37.5t37 16.5t37 -16.5t16 -37.5q0 -22 -16 -38t-37 -16t-37 16t-16 38zM370 711q0 21 16 37.5t37 16.5t37 -16.5t16 -37.5q0 -22 -16 -38t-37 -16t-37 16t-16 38zM337 -9q-132 0 -216 89t-84 219q0 129 84 217.5t216 88.5q134 0 217.5 -88.5
t83.5 -217.5q0 -130 -83.5 -219t-217.5 -89zM337 84q90 0 146.5 62t56.5 153q0 90 -56.5 152t-146.5 62q-88 0 -144.5 -62t-56.5 -152q0 -91 56.5 -153t144.5 -62z" />
    <glyph glyph-name="multiply" unicode="&#xd7;" horiz-adv-x="501" 
d="M197 300l-146 151l55 54l145 -150l145 150l54 -54l-145 -151l145 -150l-54 -54l-145 150l-145 -150l-55 54z" />
    <glyph glyph-name="Oslash" unicode="&#xd8;" horiz-adv-x="675" 
d="M578 489q60 -82 60 -190q0 -130 -83.5 -219t-217.5 -89q-107 0 -184 60l-50 -51h-108l104 106q-62 82 -62 193q0 129 84 217.5t216 88.5q108 0 187 -61l55 56h107zM136 299q0 -67 32 -121l289 297q-52 38 -120 38q-88 0 -144.5 -62t-56.5 -152zM540 299q0 66 -32 118
l-288 -296q51 -37 117 -37q90 0 146.5 62t56.5 153z" />
    <glyph glyph-name="Ugrave" unicode="&#xd9;" horiz-adv-x="633" 
d="M297 785l46 -150h-66l-90 133zM317 -9q-115 0 -182.5 74t-67.5 194v341h96v-341q0 -79 39.5 -127.5t114.5 -48.5t114 48.5t39 127.5v341h96v-341q0 -120 -66.5 -194t-182.5 -74z" />
    <glyph glyph-name="Uacute" unicode="&#xda;" horiz-adv-x="633" 
d="M281 635l52 145l111 -13l-98 -132h-65zM317 -9q-115 0 -182.5 74t-67.5 194v341h96v-341q0 -79 39.5 -127.5t114.5 -48.5t114 48.5t39 127.5v341h96v-341q0 -120 -66.5 -194t-182.5 -74z" />
    <glyph glyph-name="Ucircumflex" unicode="&#xdb;" horiz-adv-x="633" 
d="M263 657h-75l87 119h75l88 -119h-76l-49 61zM317 -9q-115 0 -182.5 74t-67.5 194v341h96v-341q0 -79 39.5 -127.5t114.5 -48.5t114 48.5t39 127.5v341h96v-341q0 -120 -66.5 -194t-182.5 -74z" />
    <glyph glyph-name="Udieresis" unicode="&#xdc;" horiz-adv-x="633" 
d="M175 711q0 21 16 37.5t37 16.5t37 -16.5t16 -37.5q0 -22 -16 -38t-37 -16t-37 16t-16 38zM344 711q0 21 16 37.5t37 16.5t37 -16.5t16 -37.5q0 -22 -16 -38t-37 -16t-37 16t-16 38zM317 -9q-115 0 -182.5 74t-67.5 194v341h96v-341q0 -79 39.5 -127.5t114.5 -48.5
t114 48.5t39 127.5v341h96v-341q0 -120 -66.5 -194t-182.5 -74z" />
    <glyph glyph-name="Yacute" unicode="&#xdd;" horiz-adv-x="536" 
d="M236 635l52 145l111 -13l-98 -132h-65zM533 600l-217 -369v-231h-96v230l-217 370h107l137 -238l21 -46h1l22 46l136 238h106z" />
    <glyph glyph-name="Thorn" unicode="&#xde;" horiz-adv-x="581" 
d="M325 505q108 0 169.5 -53t61.5 -150q0 -101 -64.5 -155.5t-172.5 -54.5h-148v-92h-96v600h96v-95h154zM457 299q0 59 -37 89.5t-102 30.5h-147v-243h147q139 0 139 123z" />
    <glyph glyph-name="germandbls" unicode="&#xdf;" horiz-adv-x="498" 
d="M237 333q99 16 99 104q0 38 -23.5 62t-63.5 24q-42 0 -67.5 -28t-25.5 -78v-417h-95v406q0 96 49.5 147.5t143.5 51.5q82 0 132 -47.5t50 -120.5q0 -89 -71 -126q47 -15 72.5 -54.5t25.5 -90.5q0 -80 -51 -127t-140 -47q-21 0 -38 2t-24 4l-6 2l6 67q1 0 7 -1t17.5 -2
t24.5 -1q51 0 81 27.5t30 72.5q0 48 -30 75t-80 27h-23v68z" />
    <glyph glyph-name="agrave" unicode="&#xe0;" horiz-adv-x="464" 
d="M217 647l46 -150h-66l-90 133zM342 0l-12 56h-4q-42 -66 -140 -66q-73 0 -115.5 37.5t-42.5 95.5q0 64 49.5 101t142.5 37q49 0 97 -14v14q0 90 -110 90q-28 0 -56.5 -8t-42.5 -16l-15 -8l-33 73q61 38 161 38q93 0 140 -45.5t47 -125.5v-259h-66zM317 186q-40 16 -87 16
q-110 0 -110 -73q0 -31 23 -50.5t63 -19.5q48 0 79.5 28t31.5 68v31z" />
    <glyph glyph-name="aacute" unicode="&#xe1;" horiz-adv-x="464" 
d="M187 497l52 145l111 -13l-98 -132h-65zM342 0l-12 56h-4q-42 -66 -140 -66q-73 0 -115.5 37.5t-42.5 95.5q0 64 49.5 101t142.5 37q49 0 97 -14v14q0 90 -110 90q-28 0 -56.5 -8t-42.5 -16l-15 -8l-33 73q61 38 161 38q93 0 140 -45.5t47 -125.5v-259h-66zM317 186
q-40 16 -87 16q-110 0 -110 -73q0 -31 23 -50.5t63 -19.5q48 0 79.5 28t31.5 68v31z" />
    <glyph glyph-name="acircumflex" unicode="&#xe2;" horiz-adv-x="464" 
d="M173 496h-75l87 119h75l88 -119h-76l-49 61zM342 0l-12 56h-4q-42 -66 -140 -66q-73 0 -115.5 37.5t-42.5 95.5q0 64 49.5 101t142.5 37q49 0 97 -14v14q0 90 -110 90q-28 0 -56.5 -8t-42.5 -16l-15 -8l-33 73q61 38 161 38q93 0 140 -45.5t47 -125.5v-259h-66zM317 186
q-40 16 -87 16q-110 0 -110 -73q0 -31 23 -50.5t63 -19.5q48 0 79.5 28t31.5 68v31z" />
    <glyph glyph-name="atilde" unicode="&#xe3;" horiz-adv-x="464" 
d="M296 489q-33 0 -77 25.5t-61 25.5q-30 0 -39 -37l-4 -16l-67 7l5 30q16 89 94 89q32 0 76 -25.5t62 -25.5q31 0 40 38l3 15l67 -6l-4 -29q-16 -91 -95 -91zM342 0l-12 56h-4q-42 -66 -140 -66q-73 0 -115.5 37.5t-42.5 95.5q0 64 49.5 101t142.5 37q49 0 97 -14v14
q0 90 -110 90q-28 0 -56.5 -8t-42.5 -16l-15 -8l-33 73q61 38 161 38q93 0 140 -45.5t47 -125.5v-259h-66zM317 186q-40 16 -87 16q-110 0 -110 -73q0 -31 23 -50.5t63 -19.5q48 0 79.5 28t31.5 68v31z" />
    <glyph glyph-name="adieresis" unicode="&#xe4;" horiz-adv-x="464" 
d="M86 540q0 21 16 37.5t37 16.5t37 -16.5t16 -37.5q0 -22 -16 -38t-37 -16t-37 16t-16 38zM255 540q0 21 16 37.5t37 16.5t37 -16.5t16 -37.5q0 -22 -16 -38t-37 -16t-37 16t-16 38zM342 0l-12 56h-4q-42 -66 -140 -66q-73 0 -115.5 37.5t-42.5 95.5q0 64 49.5 101
t142.5 37q49 0 97 -14v14q0 90 -110 90q-28 0 -56.5 -8t-42.5 -16l-15 -8l-33 73q61 38 161 38q93 0 140 -45.5t47 -125.5v-259h-66zM317 186q-40 16 -87 16q-110 0 -110 -73q0 -31 23 -50.5t63 -19.5q48 0 79.5 28t31.5 68v31z" />
    <glyph glyph-name="aring" unicode="&#xe5;" horiz-adv-x="464" 
d="M116 584q0 40 29.5 64.5t79.5 24.5q49 0 78 -24.5t29 -64.5q0 -39 -29.5 -63.5t-77.5 -24.5q-50 0 -79.5 24.5t-29.5 63.5zM276 584q0 40 -51 40q-52 0 -52 -40q0 -39 52 -39q51 0 51 39zM342 0l-12 56h-4q-42 -66 -140 -66q-73 0 -115.5 37.5t-42.5 95.5q0 64 49.5 101
t142.5 37q49 0 97 -14v14q0 90 -110 90q-28 0 -56.5 -8t-42.5 -16l-15 -8l-33 73q61 38 161 38q93 0 140 -45.5t47 -125.5v-259h-66zM317 186q-40 16 -87 16q-110 0 -110 -73q0 -31 23 -50.5t63 -19.5q48 0 79.5 28t31.5 68v31z" />
    <glyph glyph-name="ae" unicode="&#xe6;" horiz-adv-x="741" 
d="M689 39q-5 -6 -16 -14t-50.5 -22t-86.5 -14q-111 0 -169 74q-55 -73 -170 -73q-84 0 -127 37t-43 95q0 63 47 99.5t141 36.5q58 0 101 -15v16q0 93 -109 93q-28 0 -56.5 -8.5t-42.5 -17.5l-15 -8l-34 74q64 38 158 38q108 0 156 -65q55 65 147 65q90 0 140 -57.5
t50 -151.5v-25h-300l1 -4q4 -61 39.5 -93t91.5 -32q32 0 60 9.5t40 18.5l13 9zM518 355q-88 0 -104 -95h202q-11 95 -98 95zM205 59q53 0 82 28.5t29 71.5v23q-39 17 -93 17q-103 0 -103 -73q0 -30 22 -48.5t63 -18.5z" />
    <glyph glyph-name="ccedilla" unicode="&#xe7;" horiz-adv-x="409" 
d="M214 -7q-82 11 -130.5 69.5t-48.5 146.5q0 97 59.5 159t155.5 62q40 0 72.5 -9t44.5 -19l12 -9l-26 -70q-39 28 -96 28q-55 0 -90.5 -38t-35.5 -104t35 -103t91 -37q25 0 49 7t36 14l11 7l25 -69q-34 -34 -115 -37h-2l-11 -26q28 -1 46 -18t18 -47q0 -32 -22 -52t-61 -20
q-24 0 -43.5 7.5t-27.5 14.5l-8 8l24 35q28 -20 53 -20q38 0 38 29q0 28 -36 28l-23 -3l-16 19z" />
    <glyph glyph-name="egrave" unicode="&#xe8;" horiz-adv-x="458" 
d="M211 497l-90 133l110 17l46 -150h-66zM428 196h-301q4 -64 39 -97t93 -33q32 0 60.5 9t40.5 19l13 9l34 -65q-5 -6 -16 -14t-50.5 -22t-87.5 -14q-100 0 -159 61.5t-59 159.5q0 96 56 158.5t147 62.5q89 0 139.5 -57.5t50.5 -151.5v-25zM334 260q-12 95 -98 95
q-88 0 -104 -95h202z" />
    <glyph glyph-name="eacute" unicode="&#xe9;" horiz-adv-x="458" 
d="M266 497h-65l52 145l111 -13zM428 196h-301q4 -64 39 -97t93 -33q32 0 60.5 9t40.5 19l13 9l34 -65q-5 -6 -16 -14t-50.5 -22t-87.5 -14q-100 0 -159 61.5t-59 159.5q0 96 56 158.5t147 62.5q89 0 139.5 -57.5t50.5 -151.5v-25zM334 260q-12 95 -98 95q-88 0 -104 -95
h202z" />
    <glyph glyph-name="ecircumflex" unicode="&#xea;" horiz-adv-x="458" 
d="M187 496h-75l87 119h75l88 -119h-76l-49 61zM428 196h-301q4 -64 39 -97t93 -33q32 0 60.5 9t40.5 19l13 9l34 -65q-5 -6 -16 -14t-50.5 -22t-87.5 -14q-100 0 -159 61.5t-59 159.5q0 96 56 158.5t147 62.5q89 0 139.5 -57.5t50.5 -151.5v-25zM334 260q-12 95 -98 95
q-88 0 -104 -95h202z" />
    <glyph glyph-name="edieresis" unicode="&#xeb;" horiz-adv-x="458" 
d="M153 486q-21 0 -37 16t-16 38q0 21 16 37.5t37 16.5t37 -16.5t16 -37.5q0 -22 -16 -38t-37 -16zM322 486q-21 0 -37 16t-16 38q0 21 16 37.5t37 16.5t37 -16.5t16 -37.5q0 -22 -16 -38t-37 -16zM428 196h-301q4 -64 39 -97t93 -33q32 0 60.5 9t40.5 19l13 9l34 -65
q-5 -6 -16 -14t-50.5 -22t-87.5 -14q-100 0 -159 61.5t-59 159.5q0 96 56 158.5t147 62.5q89 0 139.5 -57.5t50.5 -151.5v-25zM334 260q-12 95 -98 95q-88 0 -104 -95h202z" />
    <glyph glyph-name="igrave" unicode="&#xec;" horiz-adv-x="219" 
d="M103 647l46 -150h-66l-90 133zM157 420v-420h-95v420h95z" />
    <glyph glyph-name="iacute" unicode="&#xed;" horiz-adv-x="219" 
d="M73 497l52 145l111 -13l-98 -132h-65zM157 420v-420h-95v420h95z" />
    <glyph glyph-name="icircumflex" unicode="&#xee;" horiz-adv-x="219" 
d="M59 496h-75l87 119h75l88 -119h-76l-49 61zM157 420v-420h-95v420h95z" />
    <glyph glyph-name="idieresis" unicode="&#xef;" horiz-adv-x="219" 
d="M-28 540q0 21 16 37.5t37 16.5t37 -16.5t16 -37.5q0 -22 -16 -38t-37 -16t-37 16t-16 38zM141 540q0 21 16 37.5t37 16.5t37 -16.5t16 -37.5q0 -22 -16 -38t-37 -16t-37 16t-16 38zM157 420v-420h-95v420h95z" />
    <glyph glyph-name="eth" unicode="&#xf0;" horiz-adv-x="504" 
d="M252 -10q-100 0 -158.5 59t-58.5 160q0 99 59 159.5t158 60.5q14 0 40 -4v4q-15 19 -28 41l-39 61l-112 -69l-31 54l111 68l-81 133v11h91l62 -100l116 71l32 -54l-116 -71l120 -193q28 -48 39.5 -83t12.5 -81v-8q0 -101 -58.5 -160t-158.5 -59zM373 210q0 66 -34 103.5
t-87 37.5q-54 0 -87.5 -38t-33.5 -103q0 -66 33.5 -104t87.5 -38t87.5 38t33.5 104z" />
    <glyph glyph-name="ntilde" unicode="&#xf1;" horiz-adv-x="512" 
d="M329 489q-33 0 -77 25.5t-61 25.5q-30 0 -39 -37l-4 -16l-67 7l5 30q16 89 94 89q32 0 76 -25.5t62 -25.5q31 0 40 38l3 15l67 -6l-4 -29q-16 -91 -95 -91zM123 420l12 -60h6q23 36 56 53t85 17q81 0 128 -52t47 -138v-240h-95v231q0 52 -27 84.5t-75 32.5t-75 -31
t-29 -69v-248h-95v420h62z" />
    <glyph glyph-name="ograve" unicode="&#xf2;" horiz-adv-x="499" 
d="M244 647l46 -150h-66l-90 133zM465 208q0 -97 -62.5 -157.5t-153.5 -60.5t-153 60t-62 158q0 99 62 160.5t153 61.5t153.5 -62t62.5 -160zM249 66q52 0 87 39t35 104t-35 105t-87 40t-87 -40t-35 -105t35 -104t87 -39z" />
    <glyph glyph-name="oacute" unicode="&#xf3;" horiz-adv-x="499" 
d="M214 497l52 145l111 -13l-98 -132h-65zM465 208q0 -97 -62.5 -157.5t-153.5 -60.5t-153 60t-62 158q0 99 62 160.5t153 61.5t153.5 -62t62.5 -160zM249 66q52 0 87 39t35 104t-35 105t-87 40t-87 -40t-35 -105t35 -104t87 -39z" />
    <glyph glyph-name="ocircumflex" unicode="&#xf4;" horiz-adv-x="499" 
d="M200 496h-75l87 119h75l88 -119h-76l-49 61zM465 208q0 -97 -62.5 -157.5t-153.5 -60.5t-153 60t-62 158q0 99 62 160.5t153 61.5t153.5 -62t62.5 -160zM249 66q52 0 87 39t35 104t-35 105t-87 40t-87 -40t-35 -105t35 -104t87 -39z" />
    <glyph glyph-name="otilde" unicode="&#xf5;" horiz-adv-x="499" 
d="M323 489q-33 0 -77 25.5t-61 25.5q-30 0 -39 -37l-4 -16l-67 7l5 30q16 89 94 89q32 0 76 -25.5t62 -25.5q31 0 40 38l3 15l67 -6l-4 -29q-16 -91 -95 -91zM465 208q0 -97 -62.5 -157.5t-153.5 -60.5t-153 60t-62 158q0 99 62 160.5t153 61.5t153.5 -62t62.5 -160z
M249 66q52 0 87 39t35 104t-35 105t-87 40t-87 -40t-35 -105t35 -104t87 -39z" />
    <glyph glyph-name="odieresis" unicode="&#xf6;" horiz-adv-x="499" 
d="M113 540q0 21 16 37.5t37 16.5t37 -16.5t16 -37.5q0 -22 -16 -38t-37 -16t-37 16t-16 38zM282 540q0 21 16 37.5t37 16.5t37 -16.5t16 -37.5q0 -22 -16 -38t-37 -16t-37 16t-16 38zM465 208q0 -97 -62.5 -157.5t-153.5 -60.5t-153 60t-62 158q0 99 62 160.5t153 61.5
t153.5 -62t62.5 -160zM249 66q52 0 87 39t35 104t-35 105t-87 40t-87 -40t-35 -105t35 -104t87 -39z" />
    <glyph glyph-name="divide" unicode="&#xf7;" horiz-adv-x="487" 
d="M182 461q0 26 18 44t44 18q25 0 43 -18t18 -44q0 -25 -18 -43t-43 -18q-26 0 -44 17.5t-18 43.5zM437 335v-78h-387v78h387zM182 136q0 26 18 44t44 18q25 0 43 -18.5t18 -43.5q0 -26 -18 -43.5t-43 -17.5q-26 0 -44 17.5t-18 43.5z" />
    <glyph glyph-name="oslash" unicode="&#xf8;" horiz-adv-x="500" 
d="M466 208q0 -97 -62.5 -157.5t-153.5 -60.5q-76 0 -132 42l-31 -32h-68l63 66q-47 56 -47 142q0 99 62 160.5t153 61.5q71 0 128 -41l29 31h69l-62 -64q52 -64 52 -148zM128 209q0 -45 17 -77l177 196q-31 26 -72 26q-52 0 -87 -40t-35 -105zM250 66q52 0 87 39t35 104
q0 46 -21 82l-178 -197q31 -28 77 -28z" />
    <glyph glyph-name="ugrave" unicode="&#xf9;" horiz-adv-x="510" 
d="M245 647l46 -150h-66l-90 133zM449 420v-420h-62l-16 59h-5q-43 -69 -139 -69q-81 0 -126 51.5t-45 138.5v240h95v-232q0 -53 24.5 -85.5t72.5 -32.5q50 0 77.5 31.5t28.5 70.5v248h95z" />
    <glyph glyph-name="uacute" unicode="&#xfa;" horiz-adv-x="510" 
d="M215 497l52 145l111 -13l-98 -132h-65zM449 420v-420h-62l-16 59h-5q-43 -69 -139 -69q-81 0 -126 51.5t-45 138.5v240h95v-232q0 -53 24.5 -85.5t72.5 -32.5q50 0 77.5 31.5t28.5 70.5v248h95z" />
    <glyph glyph-name="ucircumflex" unicode="&#xfb;" horiz-adv-x="510" 
d="M201 496h-75l87 119h75l88 -119h-76l-49 61zM449 420v-420h-62l-16 59h-5q-43 -69 -139 -69q-81 0 -126 51.5t-45 138.5v240h95v-232q0 -53 24.5 -85.5t72.5 -32.5q50 0 77.5 31.5t28.5 70.5v248h95z" />
    <glyph glyph-name="udieresis" unicode="&#xfc;" horiz-adv-x="510" 
d="M114 540q0 21 16 37.5t37 16.5t37 -16.5t16 -37.5q0 -22 -16 -38t-37 -16t-37 16t-16 38zM283 540q0 21 16 37.5t37 16.5t37 -16.5t16 -37.5q0 -22 -16 -38t-37 -16t-37 16t-16 38zM449 420v-420h-62l-16 59h-5q-43 -69 -139 -69q-81 0 -126 51.5t-45 138.5v240h95v-232
q0 -53 24.5 -85.5t72.5 -32.5q50 0 77.5 31.5t28.5 70.5v248h95z" />
    <glyph glyph-name="yacute" unicode="&#xfd;" horiz-adv-x="454" 
d="M192 497l52 145l111 -13l-98 -132h-65zM99 -156l86 184l-178 392h104l111 -277q7 -23 7 -31h5q0 11 6 31l110 277h97l-250 -576h-98z" />
    <glyph glyph-name="thorn" unicode="&#xfe;" horiz-adv-x="522" 
d="M156 -156h-95v756h95v-249h3q1 3 4 8.5t14 19t25 24t38.5 19t52.5 8.5q85 0 139.5 -60.5t54.5 -159.5q0 -97 -55.5 -158.5t-138.5 -61.5q-29 0 -53.5 8.5t-38.5 21t-24 24.5t-13 20l-4 9h-4v-229zM151 210q0 -64 34.5 -102.5t86.5 -38.5t85.5 39t33.5 102
q0 62 -33.5 101.5t-85.5 39.5t-86.5 -38.5t-34.5 -102.5z" />
    <glyph glyph-name="ydieresis" unicode="&#xff;" horiz-adv-x="454" 
d="M91 540q0 21 16 37.5t37 16.5t37 -16.5t16 -37.5q0 -22 -16 -38t-37 -16t-37 16t-16 38zM260 540q0 21 16 37.5t37 16.5t37 -16.5t16 -37.5q0 -22 -16 -38t-37 -16t-37 16t-16 38zM99 -156l86 184l-178 392h104l111 -277q7 -23 7 -31h5q0 11 6 31l110 277h97l-250 -576
h-98z" />
    <glyph glyph-name="dotlessi" unicode="&#x131;" horiz-adv-x="219" 
d="M157 420v-420h-95v420h95z" />
    <glyph glyph-name="Lslash" unicode="&#x141;" horiz-adv-x="497" 
d="M79 345v255h96v-196l137 84v-89l-137 -85v-228h297v-86h-393v256l-63 -38v90z" />
    <glyph glyph-name="lslash" unicode="&#x142;" horiz-adv-x="238" 
d="M70 308v297h95v-238l58 35v-56l-58 -36v-310h-95v251l-51 -32v57z" />
    <glyph glyph-name="OE" unicode="&#x152;" horiz-adv-x="1005" 
d="M636 514v-169h281v-82h-281v-177h330v-86h-426v66q-81 -75 -203 -75q-132 0 -216 89t-84 219q0 129 84 217.5t216 88.5q122 0 203 -75v70h426v-86h-330zM337 84q90 0 146.5 62t56.5 153q0 90 -56.5 152t-146.5 62q-88 0 -144.5 -62t-56.5 -152q0 -91 56.5 -153t144.5 -62
z" />
    <glyph glyph-name="oe" unicode="&#x153;" horiz-adv-x="812" 
d="M762 38q-5 -6 -16 -14t-51 -22t-87 -14q-124 0 -182 90q-29 -42 -75.5 -65t-101.5 -23q-91 0 -153 60t-62 158q0 99 62 160.5t153 61.5q114 0 176 -90q57 90 167 90q90 0 140.5 -57.5t50.5 -151.5l-1 -25h-299v-6q4 -61 39.5 -92.5t91.5 -31.5q32 0 60.5 9t41.5 19l12 9z
M590 355q-86 0 -104 -95h202q-11 95 -98 95zM249 66q52 0 87 39t35 104t-35 105t-87 40t-87 -40t-35 -105t35 -104t87 -39z" />
    <glyph glyph-name="Scaron" unicode="&#x160;" horiz-adv-x="517" 
d="M306 777h74l-80 -109h-88l-82 109h76l49 -62zM88 139q8 -6 22 -16t58.5 -26t89.5 -16q61 0 90.5 21.5t29.5 58.5q0 36 -28.5 57t-110.5 46q-105 32 -152 71.5t-47 104.5q0 77 57.5 121t162.5 44q66 0 117.5 -15.5t70.5 -30.5l19 -15l-52 -78q-6 6 -18 14t-52.5 22
t-84.5 14q-115 0 -115 -73q0 -28 29 -47.5t107 -42.5q109 -31 156 -74t47 -112q0 -77 -58 -126.5t-165 -49.5q-68 0 -124 18.5t-79 36.5l-22 19z" />
    <glyph glyph-name="scaron" unicode="&#x161;" horiz-adv-x="417" 
d="M260 606h74l-80 -109h-88l-82 109h76l49 -62zM69 105q61 -41 140 -41q80 0 80 49q0 22 -26 35.5t-63 23t-74 22.5t-63 41.5t-26 71.5q0 54 41 88.5t120 34.5q50 0 94 -9t62 -17l19 -9l-33 -75q-54 36 -132 36t-78 -46q0 -21 26 -34t63.5 -21.5t75 -21t63.5 -42t26 -74.5
q0 -56 -42.5 -91.5t-130.5 -35.5q-54 0 -98 12t-61 24l-17 13z" />
    <glyph glyph-name="Ydieresis" unicode="&#x178;" horiz-adv-x="536" 
d="M130 711q0 21 16 37.5t37 16.5t37 -16.5t16 -37.5q0 -22 -16 -38t-37 -16t-37 16t-16 38zM299 711q0 21 16 37.5t37 16.5t37 -16.5t16 -37.5q0 -22 -16 -38t-37 -16t-37 16t-16 38zM533 600l-217 -369v-231h-96v230l-217 370h107l137 -238l21 -46h1l22 46l136 238h106z
" />
    <glyph glyph-name="Zcaron" unicode="&#x17d;" horiz-adv-x="533" 
d="M312 777h74l-80 -109h-88l-82 109h76l49 -62zM372 514h-331v86h459v-70l-336 -444h331v-86h-465v68z" />
    <glyph glyph-name="zcaron" unicode="&#x17e;" horiz-adv-x="425" 
d="M260 606h74l-80 -109h-88l-82 109h76l49 -62zM35 51l230 292h-229v77h354v-46l-227 -297h227v-77h-355v51z" />
    <glyph glyph-name="florin" unicode="&#x192;" horiz-adv-x="527" 
d="M136 346v74h93l6 25q33 163 187 163q26 0 49.5 -5t34.5 -10l10 -5l-39 -79q-22 13 -58 13q-39 0 -60.5 -18t-29.5 -59l-6 -25h140v-74h-154l-47 -235q-12 -57 -41 -85.5t-90 -28.5q-24 0 -47 6.5t-34 12.5l-10 6l30 73q22 -14 48 -14q23 0 35 11t17 37l44 217h-78z" />
    <glyph glyph-name="circumflex" unicode="&#x2c6;" horiz-adv-x="371" 
d="M142 657h-75l87 119h75l88 -119h-76l-49 61z" />
    <glyph glyph-name="caron" unicode="&#x2c7;" horiz-adv-x="325" 
d="M211 777h74l-80 -109h-88l-82 109h76l49 -62z" />
    <glyph glyph-name="breve" unicode="&#x2d8;" horiz-adv-x="396" 
d="M343 813q0 -62 -40 -105t-104 -43q-65 0 -105 43t-40 105h75q0 -34 19.5 -56t50.5 -22q30 0 49.5 22t19.5 56h75z" />
    <glyph glyph-name="dotaccent" unicode="&#x2d9;" horiz-adv-x="331" 
d="M166 550q-28 0 -47 19t-19 47t19 47.5t47 19.5t47.5 -19.5t19.5 -47.5t-19.5 -47t-47.5 -19z" />
    <glyph glyph-name="ring" unicode="&#x2da;" horiz-adv-x="288" 
d="M36 703q0 40 29.5 64.5t79.5 24.5q49 0 78 -24.5t29 -64.5q0 -39 -29.5 -63.5t-77.5 -24.5q-50 0 -79.5 24.5t-29.5 63.5zM196 703q0 40 -51 40q-52 0 -52 -40q0 -39 52 -39q51 0 51 39z" />
    <glyph glyph-name="ogonek" unicode="&#x2db;" horiz-adv-x="195" 
d="M175 -110q-23 -29 -69 -29q-37 0 -57.5 20t-20.5 53q0 27 19.5 49.5t37.5 31.5t35 14l10 -29l-6 -4q-6 -3 -10 -5.5t-10.5 -8t-10.5 -10.5t-7 -12t-3 -15q0 -33 32 -33q12 0 33 14z" />
    <glyph glyph-name="tilde" unicode="&#x2dc;" horiz-adv-x="485" 
d="M313 658q-33 0 -77 25.5t-61 25.5q-30 0 -39 -37l-4 -16l-67 7l5 30q16 89 94 89q32 0 76 -25.5t62 -25.5q31 0 40 38l3 15l67 -6l-4 -29q-16 -91 -95 -91z" />
    <glyph glyph-name="hungarumlaut" unicode="&#x2dd;" horiz-adv-x="395" 
d="M37 419l40 158h103l-79 -158h-64zM199 419l40 158h103l-80 -158h-63z" />
    <glyph glyph-name="gravecomb" unicode="&#x300;" 
d="M-119 647l46 -150h-66l-90 133z" />
    <glyph glyph-name="acutecomb" unicode="&#x301;" 
d="M-225 497l52 145l111 -13l-98 -132h-65z" />
    <glyph glyph-name="uni0302" unicode="&#x302;" 
d="M-229 657h-75l87 119h75l88 -119h-76l-49 61z" />
    <glyph glyph-name="tildecomb" unicode="&#x303;" 
d="M-172 658q-33 0 -77 25.5t-61 25.5q-30 0 -39 -37l-4 -16l-67 7l5 30q16 89 94 89q32 0 76 -25.5t62 -25.5q31 0 40 38l3 15l67 -6l-4 -29q-16 -91 -95 -91z" />
    <glyph glyph-name="uni0304" unicode="&#x304;" 
d="M-110 728v-60h-295v60h295z" />
    <glyph glyph-name="uni0306" unicode="&#x306;" 
d="M-53 813q0 -62 -40 -105t-104 -43q-65 0 -105 43t-40 105h75q0 -34 19.5 -56t50.5 -22q30 0 49.5 22t19.5 56h75z" />
    <glyph glyph-name="uni0307" unicode="&#x307;" 
d="M-165 550q-28 0 -47 19t-19 47t19 47.5t47 19.5t47.5 -19.5t19.5 -47.5t-19.5 -47t-47.5 -19z" />
    <glyph glyph-name="uni0308" unicode="&#x308;" 
d="M-367 711q0 21 16 37.5t37 16.5t37 -16.5t16 -37.5q0 -22 -16 -38t-37 -16t-37 16t-16 38zM-198 711q0 21 16 37.5t37 16.5t37 -16.5t16 -37.5q0 -22 -16 -38t-37 -16t-37 16t-16 38z" />
    <glyph glyph-name="uni030A" unicode="&#x30a;" 
d="M-252 703q0 40 29.5 64.5t79.5 24.5q49 0 78 -24.5t29 -64.5q0 -39 -29.5 -63.5t-77.5 -24.5q-50 0 -79.5 24.5t-29.5 63.5zM-92 703q0 40 -51 40q-52 0 -52 -40q0 -39 52 -39q51 0 51 39z" />
    <glyph glyph-name="uni030B" unicode="&#x30b;" 
d="M-358 419l40 158h103l-79 -158h-64zM-196 419l40 158h103l-80 -158h-63z" />
    <glyph glyph-name="uni030C" unicode="&#x30c;" 
d="M-114 777h74l-80 -109h-88l-82 109h76l49 -62z" />
    <glyph glyph-name="uni0327" unicode="&#x327;" 
d="M-124 3h48l-14 -34q27 0 45.5 -17t18.5 -47q0 -33 -22 -52.5t-61 -19.5q-24 0 -44 7.5t-27 14.5l-8 7l23 36q29 -21 53 -21q38 0 38 30q0 28 -36 28l-23 -3l-16 19z" />
    <glyph glyph-name="uni0328" unicode="&#x328;" 
d="M-20 -110q-23 -29 -69 -29q-37 0 -57.5 20t-20.5 53q0 27 19.5 49.5t37.5 31.5t35 14l10 -29l-6 -4q-6 -3 -10 -5.5t-10.5 -8t-10.5 -10.5t-7 -12t-3 -15q0 -33 32 -33q12 0 33 14z" />
    <glyph glyph-name="pi" unicode="&#x3c0;" horiz-adv-x="523" 
d="M495 344h-66v-344h-95v344h-146v-344h-95v344h-65v76h467v-76z" />
    <glyph glyph-name="endash" unicode="&#x2013;" horiz-adv-x="459" 
d="M394 327v-78h-335v78h335z" />
    <glyph glyph-name="emdash" unicode="&#x2014;" horiz-adv-x="712" 
d="M647 327v-78h-588v78h588z" />
    <glyph glyph-name="quoteleft" unicode="&#x2018;" horiz-adv-x="219" 
d="M42 436q0 63 34 107.5t95 56.5l15 -52q-67 -16 -73 -63q20 -4 33 -19.5t13 -36.5q0 -24 -17 -41.5t-41 -17.5q-25 0 -42 17.5t-17 41.5v7z" />
    <glyph glyph-name="quoteright" unicode="&#x2019;" horiz-adv-x="222" 
d="M43 422q65 14 73 62q-20 5 -33 20.5t-13 36.5q0 25 17 42t41 17q25 0 42 -17t17 -42v-7q0 -62 -34 -107t-95 -57z" />
    <glyph glyph-name="quotesinglbase" unicode="&#x201a;" horiz-adv-x="212" 
d="M19 -71q67 16 73 63q-20 3 -33 19t-13 37q0 24 17 41.5t42 17.5q24 0 41 -17.5t17 -41.5v-7q0 -63 -34 -107.5t-95 -56.5z" />
    <glyph glyph-name="quotedblleft" unicode="&#x201c;" horiz-adv-x="383" 
d="M42 436q0 63 34 107.5t95 56.5l15 -52q-67 -16 -73 -63q20 -4 33 -19.5t13 -36.5q0 -24 -17 -41.5t-41 -17.5q-25 0 -42 17.5t-17 41.5v7zM205 436q0 63 34 107.5t95 56.5l16 -52q-68 -16 -74 -63q20 -4 33.5 -19.5t13.5 -36.5q0 -24 -17 -41.5t-42 -17.5
q-24 0 -41.5 17.5t-17.5 41.5v7z" />
    <glyph glyph-name="quotedblright" unicode="&#x201d;" horiz-adv-x="380" 
d="M186 534q0 -62 -34 -107t-95 -57l-15 52q67 14 73 62q-20 5 -33 20.5t-13 36.5q0 25 17 42t42 17q24 0 41 -17t17 -42v-7zM201 422q67 14 73 62q-20 5 -33 20.5t-13 36.5q0 25 17 42t41 17q25 0 42 -17t17 -42v-7q0 -62 -34 -107t-95 -57z" />
    <glyph glyph-name="quotedblbase" unicode="&#x201e;" horiz-adv-x="395" 
d="M19 -71q67 16 73 63q-20 3 -33 19t-13 37q0 24 17 41.5t42 17.5q24 0 41 -17.5t17 -41.5v-7q0 -63 -34 -107.5t-95 -56.5zM182 -71q67 16 73 63q-20 3 -33 19t-13 37q0 24 17 41.5t42 17.5q24 0 41 -17.5t17 -41.5v-7q0 -63 -34 -107.5t-95 -56.5z" />
    <glyph glyph-name="dagger" unicode="&#x2020;" horiz-adv-x="408" 
d="M165 500v135h79v-135h131v-78h-131l-8 -257h-63l-8 257h-133v78h133z" />
    <glyph glyph-name="daggerdbl" unicode="&#x2021;" horiz-adv-x="439" 
d="M182 533v135h79v-135h131v-78h-131l-6 -121l6 -121h131v-78h-131v-135h-79v135h-133v78h133l6 121l-6 121h-133v78h133z" />
    <glyph glyph-name="bullet" unicode="&#x2022;" horiz-adv-x="318" 
d="M159 307q35 0 59.5 -24.5t24.5 -59.5q0 -34 -24.5 -58.5t-59.5 -24.5t-59.5 24.5t-24.5 58.5q0 35 24.5 59.5t59.5 24.5z" />
    <glyph glyph-name="ellipsis" unicode="&#x2026;" horiz-adv-x="729" 
d="M49 57q0 28 19.5 47.5t47.5 19.5t47.5 -19.5t19.5 -47.5t-19.5 -47t-47.5 -19t-47.5 19t-19.5 47zM298 57q0 28 19 47.5t47 19.5t47.5 -19.5t19.5 -47.5t-19.5 -47t-47.5 -19t-47 19t-19 47zM546 57q0 28 19 47.5t47 19.5t48 -19.5t20 -47.5t-19.5 -47t-48.5 -19
q-28 0 -47 19t-19 47z" />
    <glyph glyph-name="perthousand" unicode="&#x2030;" horiz-adv-x="965" 
d="M171 613q61 0 97 -43.5t36 -106.5q0 -61 -36 -105t-97 -44t-97 43.5t-36 105.5q0 63 36 106.5t97 43.5zM134 0h-89l476 600h90zM171 378q29 0 44 23t15 62q0 86 -59 86q-29 0 -44.5 -23t-15.5 -63q0 -39 15.5 -62t44.5 -23zM491 291q62 0 98 -43t36 -106
q0 -62 -36.5 -106t-97.5 -44t-97 44t-36 106q0 63 36 106t97 43zM802 291q61 0 97 -43t36 -106q0 -62 -36 -106t-97 -44t-97 44t-36 106q0 63 36 106t97 43zM491 228q-28 0 -44 -23t-16 -63q0 -39 16 -62t44 -23q29 0 44.5 23t15.5 62q0 40 -15.5 63t-44.5 23zM802 228
q-29 0 -44.5 -23t-15.5 -63q0 -39 15.5 -62t44.5 -23t44 23t15 62q0 86 -59 86z" />
    <glyph glyph-name="guilsinglleft" unicode="&#x2039;" horiz-adv-x="279" 
d="M160 408h81v-10l-120 -186v-6l120 -188v-10h-81l-123 189v22z" />
    <glyph glyph-name="guilsinglright" unicode="&#x203a;" horiz-adv-x="278" 
d="M119 8h-82v10l121 188v6l-121 186v10h82l123 -189v-22z" />
    <glyph glyph-name="fraction" unicode="&#x2044;" horiz-adv-x="576" 
d="M508 665h80l-520 -665h-79z" />
    <glyph glyph-name="Euro" unicode="&#x20ac;" horiz-adv-x="576" 
d="M219 197q35 -119 150 -119q34 0 63.5 13t41.5 27l13 13l51 -71q-2 -3 -6.5 -8t-20 -17t-33.5 -21.5t-47.5 -17.5t-62.5 -8q-100 0 -164 57.5t-88 151.5h-78v69h67q-1 12 -1 36q0 26 1 39h-67v68h79q24 92 87.5 148t163.5 56q52 0 94.5 -18t59.5 -36l16 -18l-51 -73
q-5 6 -14 15t-39.5 23.5t-64.5 14.5q-114 0 -149 -112h180v-68h-195q-2 -26 -2 -39q0 -25 2 -36h195v-69h-181z" />
    <glyph glyph-name="trademark" unicode="&#x2122;" horiz-adv-x="716" 
d="M189 545v-264h-63v264h-93v55h249v-55h-93zM338 600h44l111 -145l114 145h43v-319h-63v201l-82 -107h-22l-82 105v-199h-63v319z" />
    <glyph glyph-name="uni2126" unicode="&#x2126;" horiz-adv-x="716" 
d="M174 83q-59 36 -91 98t-32 132q0 126 82.5 213t224.5 87t224.5 -87t82.5 -213q0 -70 -32.5 -132t-91.5 -98h125v-83h-273v86q75 7 125.5 70.5t50.5 146.5q0 92 -58 155t-153 63t-153 -63t-58 -155q0 -83 50.5 -146.5t125.5 -70.5v-86h-273v83h124z" />
    <glyph glyph-name="partialdiff" unicode="&#x2202;" horiz-adv-x="505" 
d="M252 -10q-100 0 -158.5 59t-58.5 160q0 99 59 159.5t158 60.5q14 0 40 -4v4q-15 19 -28 41l-152 247v11h91l214 -347q29 -50 40 -86.5t12 -85.5q0 -101 -58.5 -160t-158.5 -59zM373 210q0 66 -34 103.5t-87 37.5q-54 0 -87.5 -38t-33.5 -103q0 -66 33.5 -104t87.5 -38
t87.5 38t33.5 104z" />
    <glyph glyph-name="uni2206" unicode="&#x2206;" horiz-adv-x="638" 
d="M26 18l284 582h18l284 -582v-18h-586v18zM475 83l-155 347h-5l-153 -347h313z" />
    <glyph glyph-name="product" unicode="&#x220f;" horiz-adv-x="625" 
d="M466 0v517h-307v-517h-96v600h499v-600h-96z" />
    <glyph glyph-name="summation" unicode="&#x2211;" horiz-adv-x="448" 
d="M404 517h-239l151 -194v-48l-148 -192h236v-83h-359v83l168 209v13l-168 212v83h359v-83z" />
    <glyph glyph-name="minus" unicode="&#x2212;" horiz-adv-x="550" 
d="M492 338v-78h-434v78h434z" />
    <glyph glyph-name="radical" unicode="&#x221a;" horiz-adv-x="612" 
d="M207 -192l-203 399h106l74 -157q23 -52 30 -77h9q5 24 29 77l263 550h108l-396 -792h-20z" />
    <glyph glyph-name="infinity" unicode="&#x221e;" horiz-adv-x="757" 
d="M210 115q-74 0 -120 50t-46 120t46.5 120.5t119.5 50.5q53 0 92.5 -31t76.5 -85q78 116 168 116q69 0 117.5 -48t48.5 -123q0 -70 -45.5 -120t-120.5 -50q-53 0 -93 30.5t-77 83.5q-37 -53 -75.5 -83.5t-91.5 -30.5zM215 190q61 0 120 94q-30 47 -57.5 72t-62.5 25
q-41 0 -66 -29t-25 -67q0 -39 24.5 -67t66.5 -28zM541 381q-36 0 -63 -24.5t-55 -69.5q30 -47 56.5 -72t61.5 -25q43 0 68 28t25 67q0 42 -26.5 69t-66.5 27z" />
    <glyph glyph-name="integral" unicode="&#x222b;" horiz-adv-x="316" 
d="M111 525q0 124 112 124q21 0 41 -5.5t29 -10.5l9 -5l-26 -71q-16 9 -34 9q-36 0 -36 -50v-506q0 -124 -112 -124q-21 0 -41 5t-29 11l-9 5l26 71q17 -9 34 -9q36 0 36 50v506z" />
    <glyph glyph-name="approxequal" unicode="&#x2248;" horiz-adv-x="493" 
d="M326 358q-36 0 -80.5 21.5t-60.5 21.5q-27 0 -39 -31l-3 -14l-82 6l6 38q19 81 105 81q34 0 78.5 -21t61.5 -21q29 0 38 31l4 14l81 -7l-6 -37q-7 -37 -33 -59.5t-70 -22.5zM326 165q-36 0 -80.5 21t-60.5 21q-28 0 -39 -31l-3 -14l-82 7l6 37q20 82 105 82
q34 0 78.5 -21.5t61.5 -21.5q28 0 38 31l4 14l81 -6l-6 -38q-16 -81 -103 -81z" />
    <glyph glyph-name="notequal" unicode="&#x2260;" horiz-adv-x="473" 
d="M248 429l42 113l66 -23l-33 -90h97v-78h-127l-48 -132h175v-78h-204l-41 -112l-66 23l32 89h-88v78h117l49 132h-166v78h195z" />
    <glyph glyph-name="lessequal" unicode="&#x2264;" horiz-adv-x="388" 
d="M61 383v18l192 187l55 -58l-143 -139l143 -134l-56 -58zM51 66v78h291v-78h-291z" />
    <glyph glyph-name="greaterequal" unicode="&#x2265;" horiz-adv-x="387" 
d="M222 391l-143 139l56 58l191 -187v-18l-190 -184l-56 58zM336 144v-78h-289v78h289z" />
    <glyph glyph-name="lozenge" unicode="&#x25ca;" horiz-adv-x="467" 
d="M266 0h-65l-169 300l169 300h65l169 -300zM240 129l87 170l-87 172h-13l-88 -172l88 -170h13z" />
    <glyph glyph-name="_0001" horiz-adv-x="392" 
 />
    </font>
</defs>
</svg>
