<?xml version="1.0" encoding="utf-8"?>
<!-- Generator: Adobe Illustrator 25.4.1, SVG Export Plug-In . SVG Version: 6.00 Build 0)  -->
<svg version="1.1" id="Layer_1" xmlns="http://www.w3.org/2000/svg" xmlns:xlink="http://www.w3.org/1999/xlink" x="0px" y="0px"
	 viewBox="0 0 4000 1606.67" style="enable-background:new 0 0 4000 1606.67;" xml:space="preserve">
<style type="text/css">
	.st0{fill:#FFFFFF;}
</style>
<g>
	<g>
		<path class="st0" d="M94.27,245.91c-1.25,60.18-8.78,138.36-38.04,193.12c-5.85-7.11-21.74-19.23-29.26-22.99
			c28.84-57.69,31.77-137.52,31.77-194.38V121.34h69.81c-5.01-15.05-11.7-31.78-17.56-45.98L144.42,67
			c8.36,16.72,16.72,37.62,22.16,54.35h58.52v124.57L94.27,245.91L94.27,245.91z M94.68,155.61v56.03h95.73v-56.03H94.68z
			 M97.61,288.12h133.34V438.6h-34.69v-17.98h-65.62v25.5H97.61V288.12z M130.64,319.47v69.82h65.62v-69.82H130.64z M393.56,180.69
			c-8.36,65.22-21.32,119.97-43.48,165.53c17.98,31.77,40.55,57.69,68.98,74.4c-8.78,6.7-19.64,20.07-25.08,29.26
			c-25.92-17.14-46.82-40.13-63.96-68.13c-18.81,28.01-42.64,51-72.32,70.66c-4.17-7.95-15.46-23.83-22.57-31.78
			c32.61-19.21,56.85-45.14,75.24-76.5c-13.8-30.93-24.25-66.04-32.6-103.66c-5.86,11.3-12.12,21.33-18.81,30.94
			c-5.43-7.11-19.65-20.49-28.43-26.75c31.77-41.39,50.58-108.28,60.2-177.66l36.37,5.86c-3.77,24.25-8.36,48.9-14.63,71.9H413.2
			v35.95h-19.64V180.69z M302.43,180.69c-0.83,2.09-1.67,4.6-2.09,6.7c6.27,41.38,16.3,80.67,29.26,115.36
			c13.79-35.1,21.73-75.66,27.59-122.05L302.43,180.69L302.43,180.69z"/>
		<path class="st0" d="M625.08,170.25c-9.62,19.21-21.31,38.45-33.43,57.27v223.62h-36.37V278.52
			c-12.12,15.88-24.67,30.08-36.78,41.79c-4.19-8.36-15.47-26.75-22.17-35.53c34.27-31.77,70.64-80.26,93.63-127.08L625.08,170.25z
			 M617.97,82.05c-26.75,36.78-66.45,80.26-100.31,109.11c-3.76-8.79-12.96-23.83-18.39-31.77c28.83-24.25,65.2-62.71,83.18-91.97
			L617.97,82.05z M600.83,418.96c15.06-19.64,27.59-51.41,35.11-77.34l29.26,11.71c-7.52,26.75-18.8,60.2-35.11,82.35L600.83,418.96
			z M884.67,317.81H750.48c10.46,15.88,22.58,37.19,28.85,49.74l-30.1,11.69c-6.27-13.38-17.96-35.94-28.42-51.82l26.75-9.62H618.4
			v-31.35h266.27L884.67,317.81L884.67,317.81z M723.72,156.45c1.68-7.93,2.94-16.72,4.19-25.91H622.98V99.18h108.28
			c1.25-11.7,2.08-23.4,2.51-33.02l40.95,1.25l-4.6,31.77h112.45v31.35H765.11c-1.25,9.62-2.92,17.98-4.17,25.91h107.42v106.6
			H639.71v-106.6L723.72,156.45L723.72,156.45z M706.18,185.3h-35.96v48.9h35.96V185.3z M778.48,415.2
			c12.55,0,14.63-4.6,16.31-37.21c7.11,5.01,20.9,10.05,30.51,12.12c-3.76,44.32-13.38,55.19-43.07,55.19h-57.27
			c-38.03,0-47.22-9.62-47.22-40.56v-57.68h33.84v57.27c0,9.62,2.94,10.87,17.57,10.87H778.48z M770.96,185.3h-37.19v48.9h37.19
			V185.3z M798.56,234.2h38.03v-48.9h-38.03L798.56,234.2L798.56,234.2z M843.7,338.29c17.14,24.66,35.96,57.27,43.48,79
			l-30.94,13.79c-6.68-21.74-23.82-55.17-41.38-80.26L843.7,338.29z"/>
		<path class="st0" d="M1121.6,249.24V410.6c0,16.72-2.94,26.75-12.96,31.77c-10.03,5.86-24.25,6.27-44.3,6.27
			c-1.25-9.6-5.44-24.25-10.05-33.43c12.12,0.84,25.09,0.84,28.85,0.84s5.01-1.68,5.01-5.86v-33.86h-55.17v76.91h-32.2V250.92
			h-22.56v-59.77h20.06V81.21h124.16v109.94h23.4v54.76h203.56v28.83h-207.75v-25.5L1121.6,249.24L1121.6,249.24z M1112.39,218.73
			h-102.82v22.99h102.82V218.73z M1028.8,112.14v20.91h43.05v58.11h18.8v-79.01h-61.85V112.14z M1028.8,191.15h21.31v-33.02h-21.31
			V191.15z M1088.15,296.91v-24.67h-55.17v24.67H1088.15z M1088.15,348.73v-25.5h-55.17v25.5H1088.15z M1353.59,413.95v29.26
			h-216.12v-29.26h54.76c-3.35-11.28-7.95-24.25-12.96-35.11l28.01-8.36h-46.81v-79h170.96v79h-48.06l31.77,8.77
			c-7.11,11.71-13.38,23.83-19.64,34.7L1353.59,413.95L1353.59,413.95z M1340.63,227.09H1149.6V98.35h50.57V67.42h30.53v30.93h25.5
			V67.42h30.51v30.93h53.92V227.09z M1178.86,149.77h27.59v-25.09h-27.59V149.77z M1178.86,200.77h27.59v-25.93h-27.59V200.77z
			 M1194.33,345.4h101.57v-29.28h-101.57V345.4z M1208.53,370.47c6.27,13.81,13.81,30.94,17.57,43.48h37.62
			c6.27-13.79,12.95-31.35,16.3-43.48H1208.53z M1257.02,149.77v-25.09h-25.91v25.09H1257.02z M1231.11,174.84v25.93h25.91v-25.93
			H1231.11z M1310.12,124.68h-28.01v25.09h28.01V124.68z M1310.12,174.84h-28.01v25.93h28.01V174.84z"/>
		<path class="st0" d="M1816.25,140.57h-101.98c29.26,23.4,64.79,52.25,84.84,71.07l-32.18,22.56
			c-7.52-7.11-17.14-16.72-28.42-26.75c-206.09,11.71-229.49,12.53-245.37,18.82c-2.09-8.79-8.36-28.44-12.96-39.3
			c8.36-1.25,17.14-6.27,28.01-13.38c7.11-4.6,24.66-17.14,43.07-33.02h-100.33V106.3h168.47c-5.44-10.87-12.12-22.57-17.57-32.19
			l39.29-10.87c7.54,12.54,17.15,29.68,24.25,43.06h150.9v34.27H1816.25z M1763.59,410.6c0,20.9-6.27,30.1-22.56,35.11
			c-16.72,5.01-43.48,5.01-84.04,5.01c-2.08-9.62-7.93-22.99-12.95-31.77c28.42,1.25,61.03,1.25,68.98,0.41
			c8.35,0,11.28-2.51,11.28-9.62v-28.42h-180.16v69.39h-38.88V240.06h258.32V410.6H1763.59z M1544.14,271.82v27.16h180.16v-27.16
			H1544.14z M1724.3,353.33v-26.75h-180.16v26.75H1724.3z M1704.66,177.35c-11.3-9.19-21.74-18.39-31.77-26.75l16.3-10.03h-79.85
			c-17.98,15.88-36.78,30.51-55.58,43.89L1704.66,177.35z"/>
		<path class="st0" d="M2277.66,84.55v366.17h-38.03v-16.3H1965.4v16.3h-36.35V84.55H2277.66z M2239.62,399.32V119.67H1965.4v279.65
			H2239.62z M2207.86,382.59c-20.9-14.63-58.95-34.27-94.48-50.16v56.42h-34.27V336.2c-26.75,17.55-56.42,32.61-84.02,42.64
			c-4.6-6.27-15.47-19.23-21.74-25.09c38.46-11.69,78.59-30.08,107.01-52.66h-72.74v-70.64h192.28v63.96l22.58,14.2
			c-12.12,9.62-25.09,19.64-38.03,27.59c17.14,8.36,32.18,16.3,43.89,23.83L2207.86,382.59z M2221.64,214.14h-238.27v-22.99h100.74
			v-21.74h-78.59v-22.58h78.59v-20.9h35.11v20.9H2202v22.58h-82.76v21.74h102.41v22.99H2221.64z M2040.23,280.18h125.4v-28.42
			h-125.4L2040.23,280.18L2040.23,280.18z M2123,301.08l-5.86,5.44c13.81,5.01,28.44,11.28,42.64,17.96
			c10.46-7.52,21.33-15.45,30.1-23.4H2123z"/>
	</g>
	<g>
		<g>
			<path class="st0" d="M126.32,781.49L252.33,630.8h97.21L201.92,804.13L367.02,997H257.99L126.32,839.1v157.89H41.46V630.8h84.86
				V781.49z"/>
			<path class="st0" d="M667.38,908.53H535.72l-28.79,88.46h-85.38L553.71,630.8h99.79l132.69,366.19H697.2L667.38,908.53z
				 M556.27,842.18h90.52l-45.75-136.29L556.27,842.18z"/>
			<path class="st0" d="M957.47,630.8v366.19h-84.86V630.8H957.47z"/>
			<path class="st0" d="M1521.15,630.8l-13.88,71.48H1397.2v294.71h-84.86V702.28h-122.41l13.37-71.48L1521.15,630.8L1521.15,630.8z
				"/>
			<path class="st0" d="M1773.71,908.53h-131.68l-28.79,88.46h-85.38l132.17-366.19h99.77l132.71,366.19h-88.98L1773.71,908.53z
				 M1662.6,842.18h90.52l-45.77-136.29L1662.6,842.18z"/>
			<path class="st0" d="M2063.76,781.49l126-150.69h97.21l-147.62,173.32l165.11,192.87h-109.04L2063.76,839.1v157.89h-84.86V630.8
				h84.86V781.49z"/>
			<path class="st0" d="M209.64,1318.16c17.82,3.09,32.74,7.38,44.75,12.86c11.99,5.48,21.6,12.42,28.79,20.83
				c7.21,8.4,12.35,18.35,15.43,29.83c3.09,11.5,4.63,24.78,4.63,39.86v7.72c0,18.51-2.41,34.37-7.21,47.57
				s-12.86,24.18-24.17,32.92c-11.32,8.75-26.23,15.18-44.75,19.29c-18.52,4.12-41.32,6.17-68.4,6.17c-7.89,0-16.12,0-24.68,0
				c-8.58,0-18.09,0-28.55,0s-22.3-0.09-35.49-0.26c-13.2-0.18-28.21-0.43-45-0.77l12.86-68.92c27.08,0.69,50.14,1.03,69.17,1.03
				s36.6,0,52.72,0c11.32,0,20.66-0.59,28.03-1.79c7.37-1.2,13.19-3.17,17.48-5.92c4.29-2.74,7.21-6.43,8.75-11.06
				c1.55-4.62,2.32-10.54,2.32-17.74c0-6.51-0.43-12-1.29-16.46s-2.74-8.15-5.65-11.06c-2.92-2.91-6.86-5.31-11.83-7.2
				c-4.97-1.87-11.57-3.51-19.8-4.88l-54.01-9.26c-19.89-3.42-36.18-7.8-48.86-13.11c-12.68-5.32-22.71-12.09-30.09-20.31
				c-7.38-8.23-12.43-18.01-15.17-29.32c-2.75-11.32-4.12-24.51-4.12-39.61v-8.22c0-16.46,2.4-31.03,7.2-43.71
				s12.68-23.49,23.67-32.4c10.97-8.91,25.28-15.69,42.94-20.32c17.65-4.62,39.17-6.94,64.55-6.94c9.26,0,18.34,0,27.26,0
				s18.43,0,28.55,0c10.11,0,21.08,0.09,32.92,0.26c11.83,0.18,25.28,0.43,40.37,0.78l-12.86,68.92
				c-26.74-0.69-49.46-1.04-68.14-1.04c-18.7,0-35.23,0-49.64,0c-10.28,0-18.85,0.61-25.72,1.8c-6.86,1.2-12.17,3.09-15.94,5.66
				c-3.78,2.56-6.42,6.08-7.97,10.54c-1.54,4.46-2.32,9.95-2.32,16.46c0,5.84,0.43,10.8,1.29,14.92c0.85,4.11,2.57,7.54,5.14,10.28
				s6.25,5.06,11.06,6.94c4.79,1.88,11.13,3.52,19.03,4.88L209.64,1318.16z"/>
			<path class="st0" d="M480.18,1410.73v123.44h-82.81v-366.19h146.58c50.05,0,85.89,8.91,107.5,26.74
				c21.6,17.83,32.4,45.95,32.4,84.35v20.57c0,37.37-11.06,65.24-33.19,83.58c-22.11,18.34-58.02,27.51-107.74,27.51L480.18,1410.73
				L480.18,1410.73z M598.99,1286.27c0-9.94-1.05-18.08-3.1-24.44c-2.05-6.34-5.4-11.39-10.02-15.17
				c-4.63-3.78-10.73-6.34-18.26-7.72c-7.55-1.36-16.98-2.05-28.3-2.05h-59.14v104.92h59.14c11.32,0,20.75-0.68,28.3-2.06
				c7.53-1.36,13.63-3.93,18.26-7.71c4.61-3.77,7.97-8.83,10.02-15.18c2.05-6.34,3.1-14.48,3.1-24.43V1286.27z"/>
			<path class="st0" d="M939.46,1543.43c-32.23,0-59.07-3.26-80.48-9.77c-21.44-6.51-38.58-16.54-51.43-30.09
				c-12.86-13.55-21.95-30.78-27.26-51.69c-5.32-20.91-7.99-45.77-7.99-74.58v-53.49c0-27.77,2.58-52.03,7.73-72.77
				c5.13-20.74,14.14-37.97,27-51.69c12.86-13.71,30-23.99,51.43-30.85c21.42-6.85,48.42-10.28,81-10.28
				c32.23,0,58.97,3.25,80.23,9.77c21.26,6.51,38.32,16.55,51.18,30.09c12.86,13.55,21.95,30.69,27.26,51.43
				c5.32,20.75,7.99,45.52,7.99,74.31v53.49c0,28.11-2.58,52.55-7.73,73.29c-5.13,20.76-14.06,37.98-26.74,51.69
				c-12.68,13.72-29.74,24.01-51.18,30.86C999.04,1540,972.04,1543.43,939.46,1543.43z M939.46,1472.45
				c16.11,0,29.23-1.19,39.34-3.6c10.12-2.4,18.08-7.11,23.92-14.14c5.82-7.03,9.84-16.8,12.09-29.32
				c2.21-12.51,3.33-28.88,3.33-49.12v-50.92c0-19.88-1.12-36.17-3.33-48.86c-2.25-12.68-6.27-22.45-12.09-29.32
				c-5.84-6.85-13.81-11.58-23.92-14.14c-10.12-2.57-23.23-3.87-39.34-3.87c-16.11,0-29.33,1.21-39.6,3.6
				c-10.29,2.41-18.34,7.13-24.18,14.15c-5.84,7.03-9.86,16.8-12.09,29.32c-2.23,12.52-3.33,28.89-3.33,49.12v50.92
				c0,19.89,1.1,36.09,3.33,48.59c2.23,12.52,6.25,22.3,12.09,29.32c5.84,7.04,13.88,11.83,24.18,14.41
				C910.14,1471.17,923.35,1472.45,939.46,1472.45z"/>
			<path class="st0" d="M1495.46,1293.98c0,26.74-5.58,48.09-16.72,64.04c-11.14,15.94-27.35,27.69-48.59,35.23l82.79,140.92h-93.09
				l-69.95-128.58h-58.12v128.58h-82.79v-366.19h147.6c24.69,0,45.77,2.05,63.27,6.16c17.49,4.12,31.79,10.64,42.95,19.54
				c11.12,8.92,19.37,20.5,24.67,34.72c5.32,14.23,7.99,31.47,7.99,51.69v13.89H1495.46z M1412.13,1285.24
				c0-9.6-1.03-17.57-3.1-23.92c-2.05-6.34-5.31-11.31-9.76-14.91c-4.46-3.6-10.37-6.08-17.75-7.46
				c-7.38-1.36-16.55-2.05-27.51-2.05h-62.24v101.83h62.24c10.97,0,20.14-0.68,27.51-2.06c7.38-1.36,13.29-3.93,17.75-7.71
				c4.46-3.77,7.71-8.83,9.76-15.18c2.07-6.34,3.1-14.48,3.1-24.43V1285.24z"/>
			<path class="st0" d="M1900.74,1167.98l-13.88,71.48h-110.07v294.71h-84.86v-294.71h-122.41l13.37-71.48H1900.74z"/>
			<path class="st0" d="M2151.73,1318.16c17.83,3.09,32.74,7.38,44.75,12.86s21.61,12.42,28.81,20.83
				c7.2,8.4,12.35,18.35,15.42,29.83c3.1,11.5,4.63,24.78,4.63,39.86v7.72c0,18.51-2.41,34.37-7.2,47.57
				c-4.81,13.2-12.86,24.18-24.18,32.92c-11.32,8.75-26.23,15.18-44.75,19.29c-18.52,4.12-41.32,6.17-68.39,6.17
				c-7.91,0-16.13,0-24.69,0c-8.58,0-18.08,0-28.56,0c-10.45,0-22.29-0.09-35.48-0.26c-13.21-0.18-28.2-0.43-45-0.77l12.86-68.92
				c27.08,0.69,50.15,1.03,69.18,1.03s36.58,0,52.72,0c11.3,0,20.65-0.59,28.02-1.79s13.19-3.17,17.49-5.92
				c4.28-2.74,7.2-6.43,8.74-11.06c1.54-4.62,2.31-10.54,2.31-17.74c0-6.51-0.43-12-1.28-16.46s-2.74-8.15-5.66-11.06
				s-6.86-5.31-11.81-7.2c-4.99-1.87-11.58-3.51-19.8-4.88l-54.02-9.26c-19.88-3.42-36.17-7.8-48.85-13.11
				c-12.7-5.32-22.72-12.09-30.1-20.31c-7.38-8.23-12.42-18.01-15.17-29.32c-2.76-11.32-4.12-24.51-4.12-39.61v-8.22
				c0-16.46,2.41-31.03,7.2-43.71c4.81-12.68,12.68-23.49,23.67-32.4c10.97-8.91,25.28-15.69,42.93-20.32
				c17.67-4.62,39.19-6.94,64.55-6.94c9.27,0,18.34,0,27.28,0c8.89,0,18.42,0,28.54,0s21.08,0.09,32.92,0.26
				c11.83,0.18,25.28,0.43,40.37,0.78l-12.86,68.92c-26.74-0.69-49.46-1.04-68.14-1.04c-18.7,0-35.24,0-49.64,0
				c-10.27,0-18.85,0.61-25.72,1.8c-6.86,1.2-12.17,3.09-15.94,5.66c-3.79,2.56-6.43,6.08-7.97,10.54
				c-1.56,4.46-2.33,9.95-2.33,16.46c0,5.84,0.43,10.8,1.28,14.92c0.87,4.11,2.58,7.54,5.15,10.28c2.58,2.74,6.25,5.06,11.06,6.94
				c4.79,1.88,11.14,3.52,19.03,4.88L2151.73,1318.16z"/>
			<path class="st0" d="M2566.78,1410.73v123.44h-82.79v-366.19h146.57c50.05,0,85.89,8.91,107.5,26.74
				c21.6,17.83,32.4,45.95,32.4,84.35v20.57c0,37.37-11.06,65.24-33.19,83.58c-22.11,18.34-58.02,27.51-107.74,27.51
				L2566.78,1410.73L2566.78,1410.73z M2685.6,1286.27c0-9.94-1.05-18.08-3.1-24.44c-2.05-6.34-5.4-11.39-10.02-15.17
				c-4.63-3.78-10.73-6.34-18.26-7.72c-7.55-1.36-16.98-2.05-28.3-2.05h-59.15v104.92h59.15c11.32,0,20.75-0.68,28.3-2.06
				c7.53-1.36,13.63-3.93,18.26-7.71c4.61-3.77,7.97-8.83,10.02-15.18c2.05-6.34,3.1-14.48,3.1-24.43V1286.27z"/>
			<path class="st0" d="M3054.89,1445.71H2923.2l-28.79,88.46h-85.38l132.17-366.19h99.77l132.71,366.19h-88.98L3054.89,1445.71z
				 M2943.77,1379.36h90.52l-45.77-136.29L2943.77,1379.36z"/>
			<path class="st0" d="M3546.57,1293.98c0,26.74-5.58,48.09-16.72,64.04c-11.14,15.94-27.35,27.69-48.59,35.23l82.79,140.92h-93.09
				L3401,1405.6h-58.12v128.58h-82.79v-366.19h147.6c24.69,0,45.77,2.05,63.27,6.16c17.49,4.12,31.79,10.64,42.95,19.54
				c11.12,8.92,19.37,20.5,24.67,34.72c5.32,14.23,7.99,31.47,7.99,51.69L3546.57,1293.98L3546.57,1293.98z M3463.24,1285.24
				c0-9.6-1.03-17.57-3.1-23.92c-2.05-6.34-5.3-11.31-9.76-14.91s-10.37-6.08-17.75-7.46c-7.38-1.36-16.55-2.05-27.51-2.05h-62.24
				v101.83h62.24c10.97,0,20.14-0.68,27.51-2.06c7.38-1.36,13.29-3.93,17.75-7.71c4.46-3.77,7.71-8.83,9.76-15.18
				c2.07-6.34,3.1-14.48,3.1-24.43V1285.24z"/>
			<path class="st0" d="M3734.3,1318.67l126-150.69h97.21l-147.62,173.32L3975,1534.17h-109.04l-131.66-157.89v157.89h-84.86
				v-366.19h84.86V1318.67z"/>
		</g>
	</g>
</g>
</svg>
